<svg xmlns="http://www.w3.org/2000/svg" xmlns:xlink="http://www.w3.org/1999/xlink" width="243.307" height="275.933" viewBox="0 0 243.307 275.933">
  <defs>
    <radialGradient id="radial-gradient" cx="0.5" cy="0.5" r="1.302" gradientTransform="translate(-2.607 -0.023) scale(0.405 1.047)" gradientUnits="objectBoundingBox">
      <stop offset="0.096" stop-color="#45108a"/>
      <stop offset="0.672" stop-color="#25054d"/>
      <stop offset="1"/>
    </radialGradient>
    <radialGradient id="radial-gradient-2" cx="0.5" cy="0.5" r="1.302" gradientTransform="translate(-2.587 -0.023) scale(0.405 1.047)" xlink:href="#radial-gradient"/>
    <radialGradient id="radial-gradient-3" cx="0.5" cy="0.5" r="1.645" gradientTransform="translate(-4.689 -0.023) scale(0.312 1.047)" xlink:href="#radial-gradient"/>
    <radialGradient id="radial-gradient-4" cx="0.5" cy="0.5" r="1.322" gradientTransform="translate(-2.74 -0.023) scale(0.397 1.047)" xlink:href="#radial-gradient"/>
    <radialGradient id="radial-gradient-5" cx="0.5" cy="0.5" r="1.302" xlink:href="#radial-gradient"/>
    <radialGradient id="radial-gradient-6" cx="0.5" cy="0.5" r="1.645" gradientTransform="translate(-4.639 -0.023) scale(0.312 1.047)" xlink:href="#radial-gradient"/>
    <radialGradient id="radial-gradient-7" cx="0.5" cy="0.5" r="1.302" gradientTransform="translate(-2.587 -0.023) scale(0.405 1.047)" xlink:href="#radial-gradient"/>
  </defs>
  <g id="Group_1444" data-name="Group 1444" transform="translate(-590.693 -2297.067)">
    <text id="_2" data-name="2" transform="translate(748 2536)" fill="#cbc9c9" font-size="149" font-family="SegoeUI-Bold, Segoe UI" font-weight="700" style="mix-blend-mode: color-burn;isolation: isolate"><tspan x="0" y="0">2</tspan></text>
    <g id="Group_1297" data-name="Group 1297" transform="translate(590.692 2297.067)">
      <g id="Group_1277" data-name="Group 1277" transform="translate(12.424 93.235)" opacity="0.2">
        <path id="Path_4839" data-name="Path 4839" d="M-319.815,482.98a18.035,18.035,0,0,1-9-2.171l-56.091-32.885L-441,415.039a9.526,9.526,0,0,1-5.164-8.226c0-3.653,8.546-7.65,12.5-9.93l4.974-2.035c3.1-1.792,5.471-5.112,7.928-3.692l60.874,33.087,60.874,33.089a9.524,9.524,0,0,1,5.163,8.226c0,3.652-2.268,7.056-6.219,9.338C-300.067,474.895-315.87,482.98-319.815,482.98Z" transform="translate(446.162 -390.811)" opacity="0"/>
        <path id="Path_4840" data-name="Path 4840" d="M-433.777,397.63s4.678-1.905,4.866-1.947c3.025-1.674,5.419-4.722,7.778-3.359l59.374,32.232,4.811,2.611,54.56,29.62c2.985,1.722,5.29,4.765,5.29,7.8,0,.312.032.657.01.966-.235,3.093-2.135,6.059-5.665,8.1,0,0-1.569.834-3.555,1.8-4.754,2.318-12.817,5.868-15.539,5.73a18.446,18.446,0,0,1-8.673-2.261L-384.95,447l-54.4-31.9c-2.983-1.724-5.11-4.757-5.215-7.786C-444.683,403.849-437.645,399.864-433.777,397.63Z" transform="translate(447.15 -390.087)" opacity="0.091"/>
        <path id="Path_4841" data-name="Path 4841" d="M-433.889,398.379s4.382-1.776,4.757-1.858c2.948-1.557,5.367-4.333,7.627-3.027l57.873,31.376,4.691,2.543,53.178,28.832c2.685,1.551,5.414,4.637,5.414,7.365,0,.282.087.628.079.906-.089,2.948-1.692,5.871-5.173,7.881,0,0-1.64.9-3.425,1.779-4.587,2.25-12.3,5.476-15.013,5.2a19.034,19.034,0,0,1-8.346-2.352l-52.765-30.949L-437.7,415.161c-2.685-1.549-5.066-4.623-5.265-7.342C-443.2,404.526-437.675,400.564-433.889,398.379Z" transform="translate(448.136 -389.362)" opacity="0.182"/>
        <path id="Path_4842" data-name="Path 4842" d="M-434,399.127s4.084-1.645,4.647-1.771c2.868-1.439,5.314-3.941,7.477-2.693l56.373,30.521,4.571,2.473,51.8,28.043c2.386,1.379,5.539,4.511,5.539,6.934,0,.251.144.6.149.848.055,2.82-1.248,5.683-4.681,7.664,0,0-1.709.974-3.294,1.756-4.424,2.182-11.782,5.084-14.487,4.668a19.83,19.83,0,0,1-8.019-2.444l-51.1-29.978-51.014-29.927c-2.388-1.378-5.039-4.493-5.317-6.9C-441.72,405.189-437.7,401.264-434,399.127Z" transform="translate(449.119 -388.638)" opacity="0.273"/>
        <path id="Path_4843" data-name="Path 4843" d="M-434.1,399.877s3.788-1.515,4.539-1.682c2.791-1.321,5.262-3.553,7.326-2.362l54.872,29.665,4.45,2.407,50.413,27.253c2.09,1.206,5.665,4.383,5.665,6.5,0,.22.243.575.219.79.714,2.627-.8,5.494-4.187,7.448,0,0-1.782,1.046-3.166,1.734-4.257,2.114-11.264,4.691-13.961,4.137-2.182,0-6.127-1.632-7.692-2.535l-49.439-29.01-49.32-28.94c-2.09-1.206-5.029-4.366-5.369-6.46C-440.231,405.833-437.717,401.967-434.1,399.877Z" transform="translate(450.094 -387.914)" opacity="0.364"/>
        <path id="Path_4844" data-name="Path 4844" d="M-434.082,400.627s3.49-1.386,4.429-1.594c2.711-1.2,5.211-3.163,7.176-2.028l53.372,28.809,4.33,2.339,49.031,26.467c1.79,1.033,5.79,4.255,5.79,6.073,0,.188.309.544.286.73.989,2.469-.359,5.306-3.694,7.231,0,0-1.852,1.117-3.037,1.711-4.092,2.048-10.748,4.3-13.435,3.608-1.87,0-6.023-1.853-7.363-2.627L-384.974,443.3-432.6,415.35c-1.79-1.034-5.419-4.2-5.419-6.018C-439.218,406.648-437.62,402.668-434.082,400.627Z" transform="translate(450.955 -387.191)" opacity="0.455"/>
        <path id="Path_4845" data-name="Path 4845" d="M-434.027,401.378s3.194-1.254,4.32-1.505c2.632-1.086,5.159-2.774,7.023-1.7l51.873,27.954,4.21,2.269,47.648,25.678c1.491.861,5.915,4.128,5.915,5.643,0,.157.376.516.356.67,1.264,2.311.086,5.118-3.2,7.015,0,0-1.92,1.19-2.907,1.688-3.927,1.98-10.23,3.906-12.907,3.077-1.559,0-5.919-2.073-7.038-2.719l-46.112-27.07-45.936-26.968c-1.492-.861-5.471-4.06-5.471-5.575A6.148,6.148,0,0,1-434.027,401.378Z" transform="translate(451.773 -386.469)" opacity="0.545"/>
        <path id="Path_4846" data-name="Path 4846" d="M-433.832,402.129a44.18,44.18,0,0,1,4.21-1.416c2.554-.968,5.107-2.383,6.873-1.364l50.373,27.1,4.09,2.2,46.264,24.89c1.195.69,6.041,4,6.041,5.212,0,.125.44.489.426.612,1.538,2.153.529,4.93-2.708,6.8,0,0-1.991,1.264-2.778,1.664-3.763,1.913-9.714,3.516-12.383,2.548-1.246,0-5.816-2.294-6.709-2.81l-44.45-26.1-44.244-25.981c-1.193-.69-5.521-3.922-5.521-5.134C-436.023,408.05-437.2,404.076-433.832,402.129Z" transform="translate(452.454 -385.749)" opacity="0.636"/>
        <path id="Path_4847" data-name="Path 4847" d="M-433.513,402.883a39.661,39.661,0,0,1,4.1-1.327c2.475-.85,5.055-1.994,6.722-1.033l48.872,26.245,3.969,2.132,44.884,24.1c.9.516,6.165,3.873,6.165,4.782,0,.094.507.461.5.554,1.811,1.994.973,4.741-2.216,6.581,0,0-2.059,1.339-2.648,1.641-3.6,1.847-9.2,3.124-11.857,2.017-.934,0-5.712-2.514-6.382-2.9l-42.786-25.135-42.551-24.994c-.9-.516-5.573-3.783-5.573-4.693C-434.232,408.752-436.8,404.783-433.513,402.883Z" transform="translate(453.01 -385.03)" opacity="0.727"/>
        <path id="Path_4848" data-name="Path 4848" d="M-433.116,403.64a37.176,37.176,0,0,1,3.993-1.238c2.4-.733,5-1.606,6.572-.7l47.372,25.389,3.849,2.064,43.5,23.314c.6.345,6.29,3.746,6.29,4.353,0,.061.573.431.565.494,2.086,1.836,1.416,4.553-1.722,6.366,0,0-2.129,1.413-2.52,1.617-3.432,1.779-8.678,2.731-11.329,1.486-.623,0-5.609-2.734-6.055-2.993l-41.123-24.163-40.858-24.008c-.6-.345-5.625-3.645-5.625-4.251C-432.362,409.459-436.323,405.492-433.116,403.64Z" transform="translate(453.487 -384.314)" opacity="0.818"/>
        <path id="Path_4849" data-name="Path 4849" d="M-432.672,404.4a35.776,35.776,0,0,1,3.883-1.151c2.318-.615,4.951-1.216,6.421-.367l45.871,24.534,3.729,1.994,42.117,22.525c.3.173,6.416,3.619,6.416,3.922,0,.031.638.4.635.434,2.36,1.68,1.86,4.365-1.23,6.151,0,0-2.195,1.491-2.391,1.594-3.266,1.711-8.16,2.339-10.8.957-.312,0-5.5-2.956-5.728-3.085l-39.46-23.2-39.167-23.022c-.3-.172-5.675-3.5-5.675-3.807C-430.446,410.169-435.8,406.207-432.672,404.4Z" transform="translate(453.918 -383.603)" opacity="0.909"/>
        <path id="Path_4850" data-name="Path 4850" d="M-339.471,463.214l-43.2-25.4-43.2-25.4c-2.633-1.52-9.374-5.481-6.332-7.237,0,0,7.41-2.617,10.044-1.1l47.982,25.6,47.98,25.6c2.635,1.522,2.3,4.178-.738,5.934l-2.261,1.572C-332.236,464.544-336.836,464.733-339.471,463.214Z" transform="translate(454.321 -382.9)"/>
      </g>
      <g id="Group_1278" data-name="Group 1278" transform="translate(77.921)">
        <path id="Path_4851" data-name="Path 4851" d="M-342.595,496.305c29.057-27.765,36.365-38.9,42.368-67.475,5.17-24.608-3.851-48.145-3.851-48.145a37.051,37.051,0,0,0-18.352,19.686,51.322,51.322,0,0,0-2.946,13.755,193.05,193.05,0,0,0-2.6-32.08c-5.068-31.392-33.331-48.835-33.331-48.835s14.082,39.888-10.764,57.487c-15.709,11.127-32.1,30.379-33.626,43.458l31.551,31.075Z" transform="translate(405.698 -333.211)" fill="#7c1dc9" opacity="0.7"/>
        <path id="Path_4852" data-name="Path 4852" d="M-360.8,336.389a83.8,83.8,0,0,1,14.584,13.432,71.368,71.368,0,0,1,10.707,16.659c.329.736.613,1.465.923,2.166l.01.024c.023.047.045.091.07.134.206.439.447.832.638,1.287a62.743,62.743,0,0,1,3.561,13.511,173.51,173.51,0,0,1,2.125,30.764,41.165,41.165,0,0,1,2.559-11.709,32.119,32.119,0,0,1,6.376-9.531,38.4,38.4,0,0,1,11.357-8.671c.688-.518,6.957,14.479,6.483,32.863a59.371,59.371,0,0,1-1.144,10.571c-4.293,20.529-9.6,31.941-24.655,48.671-4.178,4.535-10.175,8.891-16.175,14.625l-22.409-21.518-8.176-7.849-30.581-29.367c1.738-12.086,16.4-29.56,31.03-40.342.157-.115.337-.248.494-.361.308-.223.613-.445.921-.662C-348.648,374.448-360.995,337.307-360.8,336.389Z" transform="translate(406.409 -331.245)" fill="#7531ce" opacity="0.727"/>
        <path id="Path_4853" data-name="Path 4853" d="M-360.288,339.567c.28.614,7.02,4.935,13.464,13.19a66.071,66.071,0,0,1,9.613,16.143c.293.737.505,1.439.78,2.078l.008.023a.79.79,0,0,0,.068.113c.193.385.461.675.633,1.084,1.476,3.532,2.418,8.823,3.085,12.959a157.989,157.989,0,0,1,1.651,29.448,31.382,31.382,0,0,1,2.171-9.662c1.627-3.614,3.576-5.476,6.248-8.394a40.913,40.913,0,0,1,10.864-8.325c1.376-1.036,7.444,12.075,7.656,28.7a45.856,45.856,0,0,1-.832,10.021c-3.9,18.984-9.141,30.131-23.615,46.614-3.758,4.082-10.277,7.342-15.678,12.5l-21.7-20.266-7.918-7.394L-403.4,430.749c2-11.505,15.9-27.987,29.908-38.294l.471-.345q.444-.321.884-.635C-350.068,375.8-360.68,341.4-360.288,339.567Z" transform="translate(407.121 -329.279)" fill="#6d44d3" opacity="0.755"/>
        <path id="Path_4854" data-name="Path 4854" d="M-359.779,342.745c.421.919,6.674,5.086,12.345,12.951a61.024,61.024,0,0,1,8.521,15.625c.254.74.4,1.413.634,1.989l.007.021a.448.448,0,0,0,.066.092c.181.333.478.52.63.884,1.311,3.139,2.017,8.729,2.611,12.405,2.141,13.266,1.173,28.132,1.173,28.132a22.1,22.1,0,0,1,1.785-7.614c1.59-3.245,3.334-4.278,6.117-7.256a43.889,43.889,0,0,1,10.376-7.98c2.062-1.552,7.944,9.694,8.828,24.54a35.514,35.514,0,0,1-.518,9.474c-3.538,17.428-8.682,28.32-22.574,44.555-3.342,3.629-10.38,5.795-15.181,10.382l-20.986-19.013-7.661-6.939-28.642-25.949c2.266-10.923,15.39-26.412,28.788-36.245.125-.092.324-.236.448-.327.282-.206.565-.408.845-.609C-351.489,377.146-360.367,345.5-359.779,342.745Z" transform="translate(407.832 -327.313)" fill="#6658d8" opacity="0.782"/>
        <path id="Path_4855" data-name="Path 4855" d="M-359.269,345.923c.56,1.225,6.3,5.264,11.224,12.71a56.306,56.306,0,0,1,7.43,15.109c.215.745.286,1.387.49,1.9l0,.021a.242.242,0,0,0,.065.07c.168.28.49.364.625.683,1.148,2.747,1.615,8.637,2.135,11.853,1.874,11.607.7,26.816.7,26.816s-.214-1.439,1.4-5.567c1.554-2.876,3.092-3.083,5.989-6.12a47.3,47.3,0,0,1,9.884-7.634c2.75-2.07,8.47,7.337,10,20.379a27.3,27.3,0,0,1-.2,8.924c-3.181,15.874-8.224,26.509-21.535,42.5-2.925,3.176-10.482,4.249-14.683,8.263l-20.274-17.762-7.405-6.483L-401.1,427.341c2.53-10.34,14.885-24.837,27.666-34.2l.426-.311q.406-.294.809-.581C-352.909,378.5-360.054,349.6-359.269,345.923Z" transform="translate(408.544 -325.347)" fill="#5e6cdd" opacity="0.809"/>
        <path id="Path_4856" data-name="Path 4856" d="M-358.759,349.1c.7,1.531,5.9,5.473,10.1,12.47a51.7,51.7,0,0,1,6.337,14.591c.175.753.176,1.361.345,1.811a.059.059,0,0,0,0,.019.126.126,0,0,0,.065.049c.155.228.505.209.62.482.983,2.353,1.214,8.545,1.659,11.3,1.606,9.948.222,25.5.222,25.5s-.369.018,1.012-3.521c1.517-2.507,2.846-1.889,5.861-4.984a51.436,51.436,0,0,1,9.391-7.286c3.438-2.59,9.039,5.011,11.175,16.216a20.827,20.827,0,0,1,.108,8.375c-2.825,14.319-7.765,24.7-20.494,40.439-2.507,2.723-10.584,2.7-14.184,6.141L-366.1,454.2l-7.15-6.03-26.7-22.53c2.792-9.759,14.379-23.263,26.543-32.148.094-.07.311-.225.4-.293.257-.186.515-.372.771-.555C-354.33,379.844-359.74,353.691-358.759,349.1Z" transform="translate(409.256 -323.381)" fill="#5780e2" opacity="0.836"/>
        <path id="Path_4857" data-name="Path 4857" d="M-358.25,352.279c.84,1.839,5.465,5.706,8.985,12.231a47.081,47.081,0,0,1,5.243,14.074c.133.762.068,1.334.2,1.721,0,.01,0,.015,0,.018a.075.075,0,0,0,.063.027c.142.176.52.053.615.282.819,1.962.813,8.451,1.183,10.75,1.339,8.291-.253,24.184-.253,24.184s-.528,1.475.625-1.473c1.479-2.138,2.6-.7,5.73-3.848a56.68,56.68,0,0,1,8.9-6.941c4.124-3.106,9.676,2.719,12.347,12.056a15.782,15.782,0,0,1,.422,7.826c-2.477,12.761-7.307,22.886-19.455,38.38-2.088,2.268-10.686,1.154-13.687,4.021l-18.849-15.256-6.894-5.573-25.73-20.822c3.056-9.176,13.872-21.69,25.423-30.1.078-.058.3-.22.38-.277l.733-.528C-355.751,381.193-359.426,357.789-358.25,352.279Z" transform="translate(409.967 -321.415)" fill="#4f93e6" opacity="0.864"/>
        <path id="Path_4858" data-name="Path 4858" d="M-357.739,355.457c.979,2.145,5,5.96,7.865,11.989A42.53,42.53,0,0,1-345.724,381c.086.775-.04,1.308.057,1.632a.021.021,0,0,0,0,.018c.015.015.037.011.063,0,.129.125.533-.1.609.081.657,1.568.413,8.359.709,10.2,1.072,6.633-.728,22.868-.728,22.868s-.683,2.933.238.575c1.444-1.769,2.344.489,5.6-2.71a63.032,63.032,0,0,1,8.411-6.594c4.812-3.624,10.429.448,13.521,7.893a11.872,11.872,0,0,1,.736,7.277c-2.133,11.2-6.848,21.077-18.415,36.323-1.67,1.815-10.788-.393-13.189,1.9l-18.139-14-6.637-5.12-24.761-19.111c3.321-8.6,13.367-20.117,24.3-28.051.063-.047.3-.214.359-.259l.7-.5C-357.173,382.542-359.113,361.885-357.739,355.457Z" transform="translate(410.679 -319.448)" fill="#48a7eb" opacity="0.891"/>
        <path id="Path_4859" data-name="Path 4859" d="M-357.23,358.635c1.12,2.451,4.493,6.233,6.745,11.75a37.943,37.943,0,0,1,3.059,13.04c.029.788-.151,1.282-.087,1.543,0,.01,0,.015,0,.016s.034,0,.06-.016c.118.071.549-.257.605-.12.492,1.177.011,8.265.233,9.644.8,4.974-1.2,21.552-1.2,21.552s-.84,4.391-.149,2.622c1.408-1.4,2.085,1.669,5.473-1.573a71.388,71.388,0,0,1,7.922-6.248c5.5-4.142,12.5-2.381,14.693,3.731,1.18,1.295,1.656,3.462,1.049,6.727-1.8,9.646-6.389,19.265-17.375,34.265-1.253,1.361-10.89-1.941-12.69-.222l-17.428-12.75-6.379-4.663-23.791-17.4c3.585-8.012,12.862-18.542,23.181-26,.047-.036.288-.209.335-.243l.659-.476C-358.593,383.891-358.8,365.98-357.23,358.635Z" transform="translate(411.39 -317.482)" fill="#40bbf0" opacity="0.918"/>
        <path id="Path_4860" data-name="Path 4860" d="M-356.719,361.813c1.259,2.758,3.95,6.515,5.625,11.509a33.443,33.443,0,0,1,1.967,12.524c-.039.8-.261,1.256-.233,1.454,0,.01,0,.014,0,.014s.034-.013.06-.037c.105.019.563-.413.6-.32.329.783-.39,8.173-.243,9.092.536,3.317-1.679,20.236-1.679,20.236s-1,5.848-.536,4.668c1.369-1.031,1.818,2.842,5.343-.437a83.218,83.218,0,0,1,7.43-5.9c6.186-4.66,13.249-4.79,15.866-.431,1.353,1,1.942,2.975,1.363,6.18-1.463,8.085-5.931,17.454-16.335,32.206-.835.906-10.992-3.49-12.192-2.342l-16.716-11.5-6.123-4.209-22.821-15.7c3.849-7.43,12.357-16.967,22.059-23.953l.314-.225c.207-.15.414-.3.62-.45C-360.013,385.24-358.485,370.076-356.719,361.813Z" transform="translate(412.102 -315.516)" fill="#39cff5" opacity="0.945"/>
        <path id="Path_4861" data-name="Path 4861" d="M-356.211,364.991A63.921,63.921,0,0,1-351.7,376.26a29.176,29.176,0,0,1,.874,12.007,9.572,9.572,0,0,1-.377,1.365c-.006.008-.006.013,0,.013s.032-.027.058-.06c.092-.032.576-.568.6-.521.164.392-.792,8.08-.719,8.54.269,1.658-2.154,18.92-2.154,18.92s-1.152,7.3-.923,6.716c1.334-.662,1.543,4,5.215.7,2.473-2.224,4.989-4.087,6.938-5.555,6.874-5.178,13.676-6.761,17.04-4.592,1.416.913,2.224,2.485,1.675,5.63-1.136,6.525-5.471,15.644-15.293,30.149-.418.453-11.1-5.037-11.7-4.464l-16-10.244-5.868-3.754L-394.2,417.123c4.111-6.848,11.849-15.393,20.936-21.905l.291-.209q.294-.209.583-.422C-361.434,386.589-358.171,374.174-356.211,364.991Z" transform="translate(412.814 -313.55)" fill="#31e2fa" opacity="0.973"/>
        <path id="Path_4862" data-name="Path 4862" d="M-393.046,415.419a85.817,85.817,0,0,1,19.816-19.856l.267-.191c9.919-7.069,15.065-16.912,17.263-27.2a43.015,43.015,0,0,1,3.385,11.028c1,6.2.293,9.862-.218,11.491a6.316,6.316,0,0,1-.521,1.276c-.007.008-.008.013-.007.011A.839.839,0,0,0-353,391.9c.079-.086.591-.724.591-.724l-5.134,34.354c1.3-.293,1.251,5.144,5.086,1.837,9.629-8.3,20.222-15.06,24.66-13.964s2.723,10.049-12.265,33.173L-366.557,431Z" transform="translate(413.525 -311.584)" fill="#2af6ff"/>
      </g>
      <g id="Group_1280" data-name="Group 1280" transform="translate(131.447 112.984)">
        <g id="Group_1279" data-name="Group 1279">
          <path id="Path_4863" data-name="Path 4863" d="M-367.512,434.621c9.153-11.225,30.581-8.3,43.187-31.609,8.3,10.732,3.3,31.174-23.043,49.609-10.319,7.221-14.51,8.232-20.071,3.262S-375.569,444.5-367.512,434.621Z" transform="translate(372.63 -403.012)" fill="#7c1dc9" opacity="0.7"/>
          <path id="Path_4864" data-name="Path 4864" d="M-367.42,434.867c8.658-10.618,29.787-9.322,41.362-30.41,7.659,9.858,1.6,29.9-22.635,47.145-9.7,6.9-13.65,7.852-18.822,3.232S-375.044,444.214-367.42,434.867Z" transform="translate(372.833 -402.118)" fill="#7531ce" opacity="0.727"/>
          <path id="Path_4865" data-name="Path 4865" d="M-367.329,435.114c8.164-10.013,28.993-10.346,39.536-29.212,7.02,8.985-.092,28.634-22.224,44.68-9.076,6.582-12.794,7.475-17.574,3.2S-374.516,443.927-367.329,435.114Z" transform="translate(373.035 -401.224)" fill="#6d44d3" opacity="0.755"/>
          <path id="Path_4866" data-name="Path 4866" d="M-367.237,435.359c7.671-9.4,28.2-11.368,37.708-28.013,6.381,8.111-1.78,27.376-21.813,42.216-8.456,6.264-11.936,7.095-16.326,3.173S-373.988,443.639-367.237,435.359Z" transform="translate(373.237 -400.33)" fill="#6658d8" opacity="0.782"/>
          <path id="Path_4867" data-name="Path 4867" d="M-367.144,435.607c7.175-8.8,27.4-12.392,35.882-26.815,5.74,7.239-3.467,26.128-21.4,39.753-7.834,5.949-11.08,6.714-15.078,3.142S-373.46,443.352-367.144,435.607Z" transform="translate(373.439 -399.436)" fill="#5e6cdd" opacity="0.809"/>
          <path id="Path_4868" data-name="Path 4868" d="M-367.05,435.853c6.68-8.19,26.606-13.414,34.055-25.617,5.1,6.366-5.144,24.895-20.994,37.289-7.209,5.639-10.22,6.337-13.828,3.113S-372.933,443.064-367.05,435.853Z" transform="translate(373.64 -398.543)" fill="#5780e2" opacity="0.836"/>
          <path id="Path_4869" data-name="Path 4869" d="M-366.958,436.1c6.186-7.585,25.813-14.438,32.229-24.419,4.461,5.492-6.811,23.674-20.583,34.825-6.585,5.332-9.364,5.957-12.58,3.084S-372.4,442.777-366.958,436.1Z" transform="translate(373.841 -397.649)" fill="#4f93e6" opacity="0.864"/>
          <path id="Path_4870" data-name="Path 4870" d="M-366.863,436.347c5.691-6.98,25.016-15.461,30.4-23.221,3.82,4.62-8.469,22.473-20.173,32.362-5.957,5.031-8.508,5.576-11.332,3.053S-371.872,442.49-366.863,436.347Z" transform="translate(374.04 -396.755)" fill="#48a7eb" opacity="0.891"/>
          <path id="Path_4871" data-name="Path 4871" d="M-366.766,436.593c5.2-6.371,24.222-16.484,28.576-22.022,3.181,3.746-10.109,21.3-19.762,29.9-5.322,4.741-7.65,5.2-10.084,3.022S-371.34,442.2-366.766,436.593Z" transform="translate(374.238 -395.861)" fill="#40bbf0" opacity="0.918"/>
          <path id="Path_4872" data-name="Path 4872" d="M-366.669,436.84c4.7-5.766,23.427-17.507,26.75-20.824,2.541,2.873-11.722,20.146-19.353,27.433-4.673,4.464-6.792,4.819-8.833,2.993S-370.807,441.914-366.669,436.84Z" transform="translate(374.434 -394.967)" fill="#39cff5" opacity="0.945"/>
          <path id="Path_4873" data-name="Path 4873" d="M-366.568,437.086c4.207-5.157,22.632-18.53,24.924-19.625,1.9,2-13.3,19.03-18.943,24.969-4,4.213-5.934,4.438-7.585,2.962S-370.271,441.627-366.568,437.086Z" transform="translate(374.627 -394.073)" fill="#31e2fa" opacity="0.973"/>
          <path id="Path_4874" data-name="Path 4874" d="M-366.462,437.356c3.712-4.552,21.837-19.553,23.1-18.427s-14.82,17.954-18.532,22.506c-3.268,4.006-5.078,4.058-6.337,2.933S-369.73,441.362-366.462,437.356Z" transform="translate(374.816 -393.202)" fill="#2af6ff"/>
        </g>
      </g>
      <g id="Group_1282" data-name="Group 1282" transform="translate(0 57.279)">
        <g id="Group_1281" data-name="Group 1281">
          <path id="Path_4875" data-name="Path 4875" d="M-415.182,413.982c-4.841-13.861-25.9-18.938-29.952-45.384-11.355,7.028-13.475,28.012,5.078,54.9,7.266,10.533,10.858,13.011,17.726,10.382S-410.918,426.185-415.182,413.982Z" transform="translate(453.837 -368.598)" fill="#7c1dc9" opacity="0.7"/>
          <path id="Path_4876" data-name="Path 4876" d="M-416.509,413.892c-4.579-13.111-24.814-19.607-28.639-43.6-10.463,6.445-11.46,27.441,5.513,52.448,6.792,10,10.181,12.342,16.567,9.9S-412.477,425.435-416.509,413.892Z" transform="translate(454.51 -367.547)" fill="#7531ce" opacity="0.727"/>
          <path id="Path_4877" data-name="Path 4877" d="M-417.826,413.8c-4.317-12.362-23.728-20.275-27.326-41.8-9.573,5.859-9.45,26.871,5.95,49.987,6.316,9.48,9.5,11.674,15.406,9.414S-414.024,424.686-417.826,413.8Z" transform="translate(455.171 -366.495)" fill="#6d44d3" opacity="0.755"/>
          <path id="Path_4878" data-name="Path 4878" d="M-419.127,413.712c-4.058-11.614-22.643-20.944-26.015-40.015-8.682,5.274-7.447,26.31,6.387,47.529,5.838,8.956,8.825,11.005,14.244,8.93S-415.556,423.937-419.127,413.712Z" transform="translate(455.818 -365.443)" fill="#6658d8" opacity="0.782"/>
          <path id="Path_4879" data-name="Path 4879" d="M-420.412,413.624c-3.8-10.866-21.557-21.614-24.7-38.228-7.791,4.691-5.453,25.756,6.823,45.07,5.361,8.435,8.148,10.337,13.085,8.448S-417.072,423.187-420.412,413.624Z" transform="translate(456.447 -364.392)" fill="#5e6cdd" opacity="0.809"/>
          <path id="Path_4880" data-name="Path 4880" d="M-421.673,413.534c-3.534-10.117-20.471-22.282-23.39-36.438-6.9,4.1-3.469,25.209,7.26,42.611,4.879,7.915,7.47,9.668,11.925,7.962S-418.563,422.438-421.673,413.534Z" transform="translate(457.052 -363.341)" fill="#5780e2" opacity="0.836"/>
          <path id="Path_4881" data-name="Path 4881" d="M-422.9,413.443c-3.273-9.367-19.385-22.951-22.077-34.647-6.01,3.519-1.5,24.673,7.7,40.151,4.4,7.4,6.794,9,10.764,7.48S-420.024,421.689-422.9,413.443Z" transform="translate(457.628 -362.289)" fill="#4f93e6" opacity="0.864"/>
          <path id="Path_4882" data-name="Path 4882" d="M-424.1,413.354c-3.011-8.618-18.3-23.62-20.764-32.859-5.118,2.936.453,24.152,8.132,37.694,3.906,6.887,6.115,8.331,9.6,7S-421.449,420.939-424.1,413.354Z" transform="translate(458.167 -361.238)" fill="#48a7eb" opacity="0.891"/>
          <path id="Path_4883" data-name="Path 4883" d="M-425.25,413.263c-2.748-7.868-17.213-24.29-19.451-31.068-4.228,2.35,2.383,23.645,8.568,35.233,3.407,6.384,5.439,7.663,8.445,6.513S-422.831,420.19-425.25,413.263Z" transform="translate(458.663 -360.186)" fill="#40bbf0" opacity="0.918"/>
          <path id="Path_4884" data-name="Path 4884" d="M-426.354,413.173c-2.486-7.119-16.128-24.958-18.139-29.278-3.338,1.764,4.278,23.156,9,32.775,2.893,5.889,4.76,6.994,7.282,6.028S-424.165,419.441-426.354,413.173Z" transform="translate(459.111 -359.134)" fill="#39cff5" opacity="0.945"/>
          <path id="Path_4885" data-name="Path 4885" d="M-427.409,413.084c-2.226-6.369-15.042-25.627-16.824-27.49-2.448,1.182,6.128,22.69,9.438,30.316,2.347,5.408,4.084,6.326,6.123,5.546S-425.451,418.691-427.409,413.084Z" transform="translate(459.511 -358.083)" fill="#31e2fa" opacity="0.973"/>
          <path id="Path_4886" data-name="Path 4886" d="M-428.416,413c-1.963-5.62-13.956-26.3-15.512-25.7s7.912,22.235,9.875,27.857c1.727,4.948,3.406,5.657,4.963,5.062S-426.687,417.946-428.416,413Z" transform="translate(459.862 -357.036)" fill="#2af6ff"/>
        </g>
      </g>
      <g id="Group_1284" data-name="Group 1284" transform="translate(31.764 58.692)">
        <g id="Group_1283" data-name="Group 1283">
          <path id="Path_4887" data-name="Path 4887" d="M-404.967,423.251c.419-14.752-17.336-27.647-11.722-53.78-13.035,2.117-22.444,20.777-14.751,52.958,3.014,12.6,5.469,16.3,12.779,16.526S-405.334,436.237-404.967,423.251Z" transform="translate(434.214 -369.471)" fill="#7c1dc9" opacity="0.7"/>
          <path id="Path_4888" data-name="Path 4888" d="M-406.372,422.815c.395-13.954-16.091-27.846-11.138-51.608-12,1.92-20.371,21.026-13.475,50.844,2.76,11.928,5.078,15.414,11.874,15.626S-406.72,435.1-406.372,422.815Z" transform="translate(434.67 -368.397)" fill="#7531ce" opacity="0.727"/>
          <path id="Path_4889" data-name="Path 4889" d="M-407.777,422.38c.374-13.158-14.845-28.046-10.554-49.437-10.966,1.722-18.3,21.277-12.2,48.73,2.5,11.254,4.684,14.531,10.968,14.727S-408.106,433.961-407.777,422.38Z" transform="translate(435.126 -367.323)" fill="#6d44d3" opacity="0.755"/>
          <path id="Path_4890" data-name="Path 4890" d="M-409.181,421.944c.351-12.36-13.6-28.246-9.968-47.265-9.932,1.525-16.245,21.531-10.921,46.616,2.247,10.583,4.293,13.647,10.062,13.827S-409.489,432.824-409.181,421.944Z" transform="translate(435.579 -366.249)" fill="#6658d8" opacity="0.782"/>
          <path id="Path_4891" data-name="Path 4891" d="M-410.582,421.507c.329-11.562-12.354-28.443-9.385-45.092-8.9,1.329-14.2,21.79-9.644,44.5,1.988,9.911,3.9,12.763,9.157,12.927S-410.872,431.687-410.582,421.507Z" transform="translate(436.031 -365.175)" fill="#5e6cdd" opacity="0.809"/>
          <path id="Path_4892" data-name="Path 4892" d="M-411.982,421.073c.306-10.766-11.109-28.644-8.8-42.922-7.863,1.131-12.161,22.053-8.367,42.388,1.724,9.241,3.509,11.879,8.249,12.027S-412.251,430.55-411.982,421.073Z" transform="translate(436.482 -364.101)" fill="#5780e2" opacity="0.836"/>
          <path id="Path_4893" data-name="Path 4893" d="M-413.378,420.637c.282-9.969-9.864-28.843-8.216-40.75-6.829.934-10.141,22.321-7.09,40.274,1.457,8.574,3.118,11,7.344,11.127S-413.628,429.411-413.378,420.637Z" transform="translate(436.929 -363.027)" fill="#4f93e6" opacity="0.864"/>
          <path id="Path_4894" data-name="Path 4894" d="M-414.772,420.2c.261-9.171-8.618-29.042-7.63-38.577-5.795.738-8.145,22.593-5.814,38.16,1.185,7.909,2.726,10.112,6.438,10.228S-415,428.274-414.772,420.2Z" transform="translate(437.373 -361.953)" fill="#48a7eb" opacity="0.891"/>
          <path id="Path_4895" data-name="Path 4895" d="M-416.162,419.766c.238-8.375-7.371-29.241-7.046-36.407-4.759.541-6.172,22.873-4.537,36.046.9,7.247,2.334,9.228,5.533,9.328S-416.371,427.137-416.162,419.766Z" transform="translate(437.812 -360.879)" fill="#40bbf0" opacity="0.918"/>
          <path id="Path_4896" data-name="Path 4896" d="M-417.543,419.329c.214-7.577-6.128-29.44-6.462-34.235-3.726.343-4.239,23.158-3.26,33.932.6,6.586,1.941,8.344,4.626,8.428S-417.732,426-417.543,419.329Z" transform="translate(438.245 -359.805)" fill="#39cff5" opacity="0.945"/>
          <path id="Path_4897" data-name="Path 4897" d="M-418.912,418.893c.193-6.779-4.882-29.639-5.877-32.062-2.69.146-2.354,23.446-1.983,31.818.262,5.929,1.549,7.46,3.72,7.528S-419.082,424.861-418.912,418.893Z" transform="translate(438.664 -358.731)" fill="#31e2fa" opacity="0.973"/>
          <path id="Path_4898" data-name="Path 4898" d="M-420.224,418.458c.17-5.982-3.635-29.84-5.291-29.89s-.537,23.721-.707,29.7c-.149,5.267,1.157,6.577,2.815,6.628S-420.372,423.724-420.224,418.458Z" transform="translate(439.025 -357.657)" fill="#2af6ff"/>
        </g>
      </g>
      <g id="Group_1286" data-name="Group 1286" transform="translate(85.094 24.278)">
        <g id="Group_1285" data-name="Group 1285">
          <path id="Path_4899" data-name="Path 4899" d="M-401.241,411.6c.567-17.676,12.4-43,17.909-63.387,15.435,3.564,20.727,36.5,13.81,64.5-3.723,15.071-7.719,19.058-16.478,18.75S-401.74,427.155-401.241,411.6Z" transform="translate(401.267 -348.21)" fill="#7c1dc9" opacity="0.7"/>
          <path id="Path_4900" data-name="Path 4900" d="M-400.569,411.139c.536-16.721,11.866-42.307,17.053-60.836,14.213,3.247,18.746,35.763,12.436,61.87-3.4,14.277-7.185,18.033-15.329,17.747S-401.04,425.858-400.569,411.139Z" transform="translate(401.683 -346.914)" fill="#7531ce" opacity="0.727"/>
          <path id="Path_4901" data-name="Path 4901" d="M-399.9,410.682c.507-15.766,11.331-41.616,16.2-58.284,12.99,2.93,16.687,35.01,11.063,59.241-3.127,13.469-6.654,17.007-14.181,16.743S-400.34,424.559-399.9,410.682Z" transform="translate(402.1 -345.619)" fill="#6d44d3" opacity="0.755"/>
          <path id="Path_4902" data-name="Path 4902" d="M-399.223,410.226c.476-14.811,10.795-40.924,15.34-55.734,11.768,2.611,14.673,34.267,9.689,56.612-2.826,12.668-6.122,15.981-13.033,15.738S-399.641,423.262-399.223,410.226Z" transform="translate(402.517 -344.324)" fill="#6658d8" opacity="0.782"/>
          <path id="Path_4903" data-name="Path 4903" d="M-398.55,409.768c.443-13.854,10.257-40.233,14.484-53.183,10.544,2.294,12.661,33.527,8.313,53.982-2.522,11.87-5.588,14.956-11.884,14.735S-398.941,421.963-398.55,409.768Z" transform="translate(402.934 -343.028)" fill="#5e6cdd" opacity="0.809"/>
          <path id="Path_4904" data-name="Path 4904" d="M-397.877,409.311c.413-12.9,9.722-39.542,13.628-50.631,9.322,1.976,10.659,32.789,6.941,51.353-2.218,11.07-5.057,13.929-10.737,13.729S-398.241,420.666-397.877,409.311Z" transform="translate(403.351 -341.733)" fill="#5780e2" opacity="0.836"/>
          <path id="Path_4905" data-name="Path 4905" d="M-397.2,408.855c.382-11.944,9.186-38.851,12.771-48.081,8.1,1.658,8.663,32.054,5.567,48.725-1.908,10.274-4.524,12.9-9.587,12.724S-397.541,419.368-397.2,408.855Z" transform="translate(403.767 -340.437)" fill="#4f93e6" opacity="0.864"/>
          <path id="Path_4906" data-name="Path 4906" d="M-396.532,408.4c.351-10.989,8.65-38.16,11.915-45.53,6.876,1.34,6.679,31.321,4.192,46.094-1.594,9.479-3.99,11.878-8.438,11.721S-396.842,418.071-396.532,408.4Z" transform="translate(404.184 -339.142)" fill="#48a7eb" opacity="0.891"/>
          <path id="Path_4907" data-name="Path 4907" d="M-395.859,407.941c.32-10.032,8.114-37.469,11.059-42.979,5.654,1.023,4.707,30.591,2.818,43.466-1.274,8.684-3.457,10.851-7.289,10.717S-396.142,416.772-395.859,407.941Z" transform="translate(404.601 -337.846)" fill="#40bbf0" opacity="0.918"/>
          <path id="Path_4908" data-name="Path 4908" d="M-395.186,407.484c.291-9.077,7.579-36.777,10.2-40.428,4.43.706,2.753,29.864,1.445,40.837-.942,7.891-2.925,9.825-6.143,9.712S-395.442,415.475-395.186,407.484Z" transform="translate(405.017 -336.551)" fill="#39cff5" opacity="0.945"/>
          <path id="Path_4909" data-name="Path 4909" d="M-394.513,407.026c.261-8.122,7.043-36.086,9.348-37.876,3.207.387.822,29.139.07,38.208-.589,7.1-2.392,8.8-4.994,8.707S-394.743,414.178-394.513,407.026Z" transform="translate(405.434 -335.255)" fill="#31e2fa" opacity="0.973"/>
          <path id="Path_4910" data-name="Path 4910" d="M-393.84,406.57c.23-7.167,6.505-35.4,8.491-35.326s-1.075,28.411-1.3,35.578c-.2,6.31-1.86,7.773-3.844,7.7S-394.043,412.879-393.84,406.57Z" transform="translate(405.85 -333.96)" fill="#2af6ff"/>
        </g>
      </g>
      <g id="Group_1294" data-name="Group 1294" transform="translate(30.605 24.335)">
        <g id="Group_1287" data-name="Group 1287" transform="translate(0.031 56.335)">
          <path id="Path_4911" data-name="Path 4911" d="M-405.05,415.995v25.827l24.267-14.915V401.079Z" transform="translate(453.384 -371.894)" fill="#9f79c8"/>
          <path id="Path_4912" data-name="Path 4912" d="M-386.563,421.443V447.27l-48.348-29.185V392.273Z" transform="translate(434.911 -377.342)" fill="#d1b4e3"/>
          <path id="Path_4913" data-name="Path 4913" d="M-434.911,397.98l48.348,29.17,24.254-14.915-48.374-29.185Z" transform="translate(434.911 -383.049)" fill="#ebdef3"/>
          <path id="Path_4914" data-name="Path 4914" d="M-386.563,421.116l-48.018-28.969-.33.2,48.348,29.169,24.254-14.915-.33-.2Z" transform="translate(434.911 -377.42)" fill="url(#radial-gradient)" style="mix-blend-mode: screen;isolation: isolate"/>
        </g>
        <g id="Group_1288" data-name="Group 1288" transform="translate(50.291 86.603)">
          <path id="Path_4915" data-name="Path 4915" d="M-374,434.694v25.827l24.267-14.915V419.779Z" transform="translate(422.334 -390.593)" fill="#9f79c8"/>
          <path id="Path_4916" data-name="Path 4916" d="M-355.512,440.142v25.827l-48.348-29.185V410.972Z" transform="translate(403.86 -396.041)" fill="#d1b4e3"/>
          <path id="Path_4917" data-name="Path 4917" d="M-403.86,416.679l48.348,29.17,24.254-14.915-48.374-29.185Z" transform="translate(403.86 -401.748)" fill="#ebdef3"/>
          <path id="Path_4918" data-name="Path 4918" d="M-355.512,439.816l-48.018-28.969-.33.2,48.348,29.169,24.254-14.915-.33-.2Z" transform="translate(403.86 -396.119)" fill="url(#radial-gradient-2)" style="mix-blend-mode: screen;isolation: isolate"/>
        </g>
        <g id="Group_1289" data-name="Group 1289" transform="translate(0 28.152)">
          <path id="Path_4919" data-name="Path 4919" d="M-419.951,389.7v25.828l24.267-14.915V374.783Z" transform="translate(444.197 -359.979)" fill="#9f79c8"/>
          <path id="Path_4920" data-name="Path 4920" d="M-410.67,389.65v25.828l-24.26-14.8V374.862Z" transform="translate(434.93 -359.931)" fill="#d1b4e3"/>
          <path id="Path_4921" data-name="Path 4921" d="M-434.93,380.568l24.26,14.788,24.254-14.915-24.286-14.8Z" transform="translate(434.93 -365.637)" fill="#ebdef3"/>
          <path id="Path_4922" data-name="Path 4922" d="M-410.67,389.371l-23.93-14.587-.33.2,24.259,14.788,24.254-14.915-.33-.2Z" transform="translate(434.93 -360.056)" fill="url(#radial-gradient-3)" style="mix-blend-mode: screen;isolation: isolate"/>
        </g>
        <g id="Group_1290" data-name="Group 1290" transform="translate(26.423 44.142)">
          <path id="Path_4923" data-name="Path 4923" d="M-390.4,407.486v25.827l24.267-14.915V392.571Z" transform="translate(436.058 -364.965)" fill="#9f79c8"/>
          <path id="Path_4924" data-name="Path 4924" d="M-372.93,412.331v25.828l-45.675-27.606V384.74Z" transform="translate(418.605 -369.809)" fill="#d1b4e3"/>
          <path id="Path_4925" data-name="Path 4925" d="M-418.605,390.447l45.675,27.591,24.254-14.915-45.7-27.606Z" transform="translate(418.605 -375.516)" fill="#ebdef3"/>
          <path id="Path_4926" data-name="Path 4926" d="M-372.93,412l-45.346-27.39-.33.2,45.675,27.591,24.254-14.915-.33-.2Z" transform="translate(418.605 -369.887)" fill="url(#radial-gradient-4)" style="mix-blend-mode: screen;isolation: isolate"/>
        </g>
        <g id="Group_1291" data-name="Group 1291" transform="translate(0.031)">
          <path id="Path_4927" data-name="Path 4927" d="M-405.05,381.191v25.828l24.267-14.915V366.276Z" transform="translate(453.384 -337.09)" fill="#9f79c8"/>
          <path id="Path_4928" data-name="Path 4928" d="M-386.563,386.639v25.828l-48.348-29.185V357.469Z" transform="translate(434.911 -342.538)" fill="#d1b4e3"/>
          <path id="Path_4929" data-name="Path 4929" d="M-434.911,363.176l48.348,29.17,24.254-14.915-48.374-29.185Z" transform="translate(434.911 -348.245)" fill="#ebdef3"/>
          <path id="Path_4930" data-name="Path 4930" d="M-386.563,386.312l-48.018-28.969-.33.2,48.348,29.169,24.254-14.915-.33-.2Z" transform="translate(434.911 -342.616)" fill="url(#radial-gradient-5)" style="mix-blend-mode: screen;isolation: isolate"/>
        </g>
        <g id="Group_1292" data-name="Group 1292" transform="translate(74.488 72.78)">
          <path id="Path_4931" data-name="Path 4931" d="M-373.932,417.269V443.1l24.267-14.915V402.354Z" transform="translate(398.178 -387.55)" fill="#9f79c8"/>
          <path id="Path_4932" data-name="Path 4932" d="M-364.652,417.221v25.828l-24.259-14.8V402.433Z" transform="translate(388.911 -387.502)" fill="#d1b4e3"/>
          <path id="Path_4933" data-name="Path 4933" d="M-388.911,408.139l24.259,14.788,24.254-14.915-24.286-14.8Z" transform="translate(388.911 -393.208)" fill="#ebdef3"/>
          <path id="Path_4934" data-name="Path 4934" d="M-364.652,416.942l-23.93-14.588-.329.2,24.259,14.788,24.254-14.915-.33-.2Z" transform="translate(388.911 -387.627)" fill="url(#radial-gradient-6)" style="mix-blend-mode: screen;isolation: isolate"/>
        </g>
        <g id="Group_1293" data-name="Group 1293" transform="translate(50.291 30.268)">
          <path id="Path_4935" data-name="Path 4935" d="M-374,399.89v25.827l24.267-14.915V384.975Z" transform="translate(422.334 -355.789)" fill="#9f79c8"/>
          <path id="Path_4936" data-name="Path 4936" d="M-355.512,405.338v25.827L-403.86,401.98V376.169Z" transform="translate(403.86 -361.238)" fill="#d1b4e3"/>
          <path id="Path_4937" data-name="Path 4937" d="M-403.86,381.875l48.348,29.17,24.254-14.915-48.374-29.186Z" transform="translate(403.86 -366.944)" fill="#ebdef3"/>
          <path id="Path_4938" data-name="Path 4938" d="M-355.512,405.012l-48.018-28.969-.33.2,48.348,29.169,24.254-14.915-.33-.2Z" transform="translate(403.86 -361.315)" fill="url(#radial-gradient-7)" style="mix-blend-mode: screen;isolation: isolate"/>
        </g>
      </g>
      <g id="Group_1295" data-name="Group 1295" transform="translate(15.889 40.003)">
        <path id="Path_4939" data-name="Path 4939" d="M-432.679,447.27a24.11,24.11,0,0,1-11.329-20.392c-.123-13.9.528-31.86,3.454-41.8,5.834-19.811,17.333-27.156,17.333-27.156s-1.772,7.127-1.36,20.633c.508,16.63,10.536,34.508,10.536,34.508s-6.008-19.79.3-32.187c10.848-21.335,41.166-12.281,41.166-12.281s-19.466,20.7-3.059,53.718c8.589,17.282,12.219,44.481,13.752,60.271a4.175,4.175,0,0,1-6.238,4.16Z" transform="translate(444.022 -357.925)" fill="#7c1dc9" opacity="0.7"/>
        <path id="Path_4940" data-name="Path 4940" d="M-424.557,360.458a139.959,139.959,0,0,0-.62,17.425c.029.923.105,1.889.186,2.9.725,8.945,4.663,18.628,7.29,24.842,2.048,4.916,3.9,7.713,3.94,7.3.037-.377-.887-3.9-1.577-8.4l-.011-.083,0-.016a51.786,51.786,0,0,1-.429-11.7c.346-4,1.175-8.346,3-11.717,9.843-18.948,37.449-10.133,37.571-9.511s-17.057,19.778-2.546,49.934c.128.265.274.563.406.83,8.315,16.738,11.983,42.5,13.577,57.61.311,3.2-3.4,5.17-6.054,3.546l-61.8-37.818a24.4,24.4,0,0,1-11.3-19.155c-.413-13.014-.512-30.02,2.2-39.767a59.009,59.009,0,0,1,2.7-7.642C-432.5,366.275-424.633,360.584-424.557,360.458Z" transform="translate(444.562 -356.358)" fill="#7531ce" opacity="0.727"/>
        <path id="Path_4941" data-name="Path 4941" d="M-425.777,362.991c.259,1.076-.4,7.036.176,17.172.05.9.181,1.842.316,2.836,1.159,8.665,5.835,18.432,8.286,24.133,1.844,4.424,3.556,6.468,3.637,5.646.074-.756-.717-4.325-1.335-8.365l-.008-.063,0-.016a46.3,46.3,0,0,1-.172-11.609c.473-3.865,1.343-8.4,3.181-11.585,8.84-16.557,33.731-7.982,33.976-6.738s-14.994,19.221-1.606,47.025c.115.24.265.544.384.783,8.043,16.193,11.748,40.512,13.4,54.95.28,2.884-3.477,4.393-5.868,2.931l-59.057-36.158c-5.677-3.472-10.874-11.051-11.271-17.922-.7-12.155-1.544-28.174.947-37.734a51.96,51.96,0,0,1,2.5-7.323A52.283,52.283,0,0,1-425.777,362.991Z" transform="translate(444.987 -354.791)" fill="#6d44d3" opacity="0.755"/>
        <path id="Path_4942" data-name="Path 4942" d="M-426.908,365.524c.39,1.615.18,7.515.973,16.92.075.872.261,1.8.445,2.774,1.583,8.385,7.007,18.239,9.283,23.425,1.64,3.932,3.211,5.223,3.334,3.99.112-1.135-.547-4.747-1.1-8.333l0-.045,0-.015a41.972,41.972,0,0,1,.084-11.52c.594-3.731,1.51-8.446,3.364-11.45,7.833-14.17,30.013-5.832,30.379-3.967.369,1.883-12.928,18.666-.664,44.118.1.212.254.523.361.736,7.77,15.647,11.512,38.526,13.229,52.289.249,2.562-3.558,3.616-5.683,2.316l-56.308-34.5c-5.045-3.087-10.707-10.592-11.242-16.687-.992-11.322-2.575-26.327-.307-35.7a45.836,45.836,0,0,1,2.3-7.005A57.994,57.994,0,0,1-426.908,365.524Z" transform="translate(445.321 -353.224)" fill="#6658d8" opacity="0.782"/>
        <path id="Path_4943" data-name="Path 4943" d="M-427.977,368.057c.518,2.153.775,8,1.769,16.667a22.586,22.586,0,0,0,.573,2.714c2,8.1,8.181,18.043,10.282,22.715,1.433,3.441,2.867,3.979,3.03,2.336a49.683,49.683,0,0,0-.855-8.3s0,0,0-.026l0-.016a38.765,38.765,0,0,1,.34-11.429c.711-3.6,1.679-8.5,3.547-11.318,6.827-11.781,26.3-3.681,26.784-1.195.492,2.509-10.864,18.11.278,41.209.089.186.244.5.337.69,7.5,15.1,11.277,36.541,13.056,49.628.217,2.243-3.639,2.841-5.5,1.7L-427.9,440.6c-4.416-2.7-10.565-10.138-11.212-15.45-1.287-10.528-3.6-24.479-1.562-33.67a40.082,40.082,0,0,1,2.1-6.687A65.6,65.6,0,0,1-427.977,368.057Z" transform="translate(445.595 -351.657)" fill="#5e6cdd" opacity="0.809"/>
        <path id="Path_4944" data-name="Path 4944" d="M-429.007,370.59c.647,2.692,1.39,8.479,2.566,16.415a19.123,19.123,0,0,0,.7,2.655c2.4,7.82,9.354,17.847,11.279,22.006,1.229,2.949,2.523,2.734,2.727.68a42.855,42.855,0,0,0-.614-8.268s0,.01,0-.007l0-.016a36.048,36.048,0,0,1,.6-11.34c.819-3.464,1.845-8.547,3.729-11.183,5.822-9.391,22.577-1.533,23.187,1.577.615,3.135-8.8,17.554,1.219,38.3l.316.641c7.224,14.558,11.041,34.558,12.881,46.968.186,1.923-3.72,2.062-5.314,1.088l-50.813-31.179c-3.784-2.315-10.448-9.688-11.183-14.217-1.585-9.772-4.62-22.627-2.815-31.638a35.186,35.186,0,0,1,1.907-6.366C-435.245,378.347-429.392,371.218-429.007,370.59Z" transform="translate(445.831 -350.09)" fill="#5780e2" opacity="0.836"/>
        <path id="Path_4945" data-name="Path 4945" d="M-429.95,373.123c.777,3.231,2.026,8.959,3.362,16.161a16.742,16.742,0,0,0,.832,2.595c2.8,7.543,10.526,17.655,12.276,21.3,1.023,2.457,2.179,1.489,2.423-.976a40.541,40.541,0,0,0-.372-8.236c0,.013.01.026.01.013l0-.016a33.911,33.911,0,0,1,.853-11.251c.923-3.331,2.012-8.6,3.911-11.051,4.817-7,18.859.618,19.592,4.349.738,3.763-6.737,17,2.161,35.393.065.133.225.461.291.6,6.952,14.013,10.806,32.572,12.708,44.307.155,1.6-3.8,1.285-5.128.473L-425.1,437.259c-3.153-1.928-11.12-9.157-11.154-12.98-3.631-8.525-5.631-20.774-4.069-29.607a30.7,30.7,0,0,1,1.709-6.047C-435.74,381.373-430.411,373.877-429.95,373.123Z" transform="translate(445.977 -348.523)" fill="#4f93e6" opacity="0.864"/>
        <path id="Path_4946" data-name="Path 4946" d="M-430.953,375.657c.906,3.767,2.684,9.437,4.158,15.907a15.149,15.149,0,0,0,.96,2.535c3.185,7.266,11.7,17.459,13.273,20.588.819,1.967,1.836.244,2.12-2.63a41.628,41.628,0,0,0-.131-8.2c.006.021.013.041.013.031l0-.015a32.228,32.228,0,0,1,1.11-11.162c1.021-3.2,2.179-8.649,4.092-10.916,3.812-4.615,15.143,2.768,16,7.119.861,4.391-4.673,16.444,3.1,32.488.05.107.215.44.269.547,6.677,13.467,10.57,30.588,12.533,41.646.125,1.282-3.88.51-4.943-.141l-45.318-27.859c-2.523-1.544-11.1-8.687-11.127-11.747-4.213-7.63-6.632-18.917-5.322-27.574a26.762,26.762,0,0,1,1.512-5.728A111.4,111.4,0,0,1-430.953,375.657Z" transform="translate(446.185 -346.955)" fill="#48a7eb" opacity="0.891"/>
        <path id="Path_4947" data-name="Path 4947" d="M-431.942,378.19c1.036,4.306,3.367,9.911,4.956,15.654a14.389,14.389,0,0,0,1.088,2.475c3.563,7,12.873,17.263,14.272,19.879.613,1.475,1.491-1,1.816-4.286a46.694,46.694,0,0,0,.11-8.171.166.166,0,0,0,.018.05.054.054,0,0,0,0-.015,30.8,30.8,0,0,1,1.366-11.075c1.115-3.069,2.345-8.7,4.275-10.782,2.805-2.224,11.423,4.919,12.4,9.892.986,5.018-2.606,15.887,4.047,29.581.037.079.206.419.244.5,6.4,12.923,10.335,28.6,12.36,38.987.092.962-3.961-.269-4.759-.756l-42.569-26.2c-1.894-1.157-11.078-8.216-11.1-10.512-4.8-6.735-7.619-17.057-6.577-25.542a23.3,23.3,0,0,1,1.314-5.41A139.124,139.124,0,0,1-431.942,378.19Z" transform="translate(446.378 -345.388)" fill="#40bbf0" opacity="0.918"/>
        <path id="Path_4948" data-name="Path 4948" d="M-432.916,380.723c1.165,4.843,4.069,10.377,5.751,15.4a14.1,14.1,0,0,0,1.217,2.413c3.935,6.734,14.047,17.069,15.269,19.171.41.982,1.148-2.245,1.513-5.942a60.711,60.711,0,0,0,.351-8.139.589.589,0,0,0,.021.07.121.121,0,0,0,0-.015,29.7,29.7,0,0,1,1.624-10.986c1.2-2.943,2.512-8.747,4.456-10.647,1.8.164,7.706,7.069,8.8,12.663,1.109,5.646-.542,15.332,4.987,26.672.026.053.2.4.223.453,6.131,12.376,10.1,26.617,12.185,36.324.061.641-4.042-1.044-4.573-1.369l-39.824-24.539c-1.261-.772-11.054-7.747-11.068-9.276a32.206,32.206,0,0,1-7.829-23.511,20.3,20.3,0,0,1,1.117-5.091C-437.3,390.48-433.609,381.853-432.916,380.723Z" transform="translate(446.558 -343.821)" fill="#39cff5" opacity="0.945"/>
        <path id="Path_4949" data-name="Path 4949" d="M-433.879,383.667c1.295,5.382,4.8,10.829,6.549,15.149a14.3,14.3,0,0,0,1.347,2.354c4.3,6.476,15.219,16.874,16.264,18.462.206.49.8-3.49,1.209-7.6.374-3.78.643-7.711.594-8.1.011.045.024.087.024.089s0,0,0-.016c-.065-.395-.055-6.664,1.879-10.9,1.29-2.82,2.679-8.8,4.637-10.515.8,2.554,3.99,9.218,5.209,15.435,1.232,6.272,1.521,14.775,5.929,23.765.013.026.186.377.2.4a166.116,166.116,0,0,1,12.012,33.665c.031.321-4.123-1.821-4.388-1.984L-419.491,431c-.631-.385-11.033-7.276-11.039-8.041a26.662,26.662,0,0,1-9.084-21.478,17.726,17.726,0,0,1,.919-4.772C-437.764,393.938-434.648,384.922-433.879,383.667Z" transform="translate(446.724 -342.665)" fill="#31e2fa" opacity="0.973"/>
        <path id="Path_4950" data-name="Path 4950" d="M-379.524,454.066a173.243,173.243,0,0,0-11.837-31.005l-.176-.358c-6.541-13.215-8.9-29.134-8.483-39.063-1.975,1.531-3.448,7.681-4.82,10.38-2.143,4.218-2.156,10.715-2.137,10.806,0,.013,0,.018,0,.015s-.016-.055-.029-.107c-.047-.131-1.74,17.326-1.74,17.326-.991-1.22-16.03-14.573-18.738-20.045-1.8-3.639-5.921-8.975-7.345-14.9-.847,1.381-3.373,10.787-3.854,12.423a16.349,16.349,0,0,0-.722,4.451,22.368,22.368,0,0,0,10.338,19.448Z" transform="translate(446.877 -342.016)" fill="#2af6ff"/>
      </g>
      <g id="Group_1296" data-name="Group 1296" transform="translate(56.326 91.673)">
        <path id="Path_4951" data-name="Path 4951" d="M-409.4,449.281c-19.042-25.8-3.993-49.947-3.993-49.947l6.17,17.248s0-19.187,7.988-23.082a34.643,34.643,0,0,1,14.885-3.652l-2.9,30.079,7.624-12.4s13.8,44.532,4.72,56.056S-406.5,453.218-409.4,449.281Z" transform="translate(419.04 -389.846)" fill="#7c1dc9" opacity="0.5"/>
        <path id="Path_4952" data-name="Path 4952" d="M-409.227,448.14c-18.067-24.484-3.789-47.4-3.789-47.4l5.856,16.368s0-18.207,7.58-21.9a32.863,32.863,0,0,1,14.124-3.464l-2.757,28.543,7.235-11.766s13.09,42.257,4.479,53.191S-406.47,451.874-409.227,448.14Z" transform="translate(419.453 -388.674)" fill="#7531ce" opacity="0.545"/>
        <path id="Path_4953" data-name="Path 4953" d="M-409.051,447c-17.095-23.165-3.585-44.843-3.585-44.843l5.541,15.486s0-17.227,7.171-20.724a31.107,31.107,0,0,1,13.365-3.278l-2.608,27.006,6.845-11.133s12.386,39.982,4.238,50.327S-406.443,450.532-409.051,447Z" transform="translate(419.866 -387.501)" fill="#6d44d3" opacity="0.591"/>
        <path id="Path_4954" data-name="Path 4954" d="M-408.875,445.856c-16.123-21.847-3.381-42.292-3.381-42.292l5.225,14.605s0-16.246,6.763-19.545a29.322,29.322,0,0,1,12.6-3.09L-390.124,421l6.457-10.5s11.68,37.708,4,47.464S-406.416,449.189-408.875,445.856Z" transform="translate(420.279 -386.329)" fill="#6658d8" opacity="0.636"/>
        <path id="Path_4955" data-name="Path 4955" d="M-408.7,444.715c-15.149-20.529-3.177-39.74-3.177-39.74l4.911,13.723s0-15.267,6.355-18.365a27.558,27.558,0,0,1,11.844-2.9l-2.311,23.932,6.067-9.866s10.976,35.432,3.755,44.6S-406.389,447.845-408.7,444.715Z" transform="translate(420.692 -385.157)" fill="#5e6cdd" opacity="0.682"/>
        <path id="Path_4956" data-name="Path 4956" d="M-408.524,443.574c-14.176-19.212-2.974-37.189-2.974-37.189l4.6,12.842s0-14.286,5.947-17.185a25.783,25.783,0,0,1,11.083-2.719l-2.163,22.4,5.677-9.233s10.272,33.158,3.514,41.737S-406.362,446.5-408.524,443.574Z" transform="translate(421.106 -383.985)" fill="#5780e2" opacity="0.727"/>
        <path id="Path_4957" data-name="Path 4957" d="M-408.348,442.432c-13.2-17.893-2.77-34.638-2.77-34.638l4.28,11.962s0-13.305,5.539-16.007a24.027,24.027,0,0,1,10.322-2.532l-2.015,20.858,5.288-8.6s9.566,30.882,3.273,38.872S-406.335,445.161-408.348,442.432Z" transform="translate(421.519 -382.812)" fill="#4f93e6" opacity="0.773"/>
        <path id="Path_4958" data-name="Path 4958" d="M-408.174,441.289c-12.231-16.573-2.566-32.083-2.566-32.083l3.966,11.08s0-12.326,5.129-14.827a22.244,22.244,0,0,1,9.563-2.345l-1.866,19.322,4.9-7.965s8.862,28.606,3.032,36.009S-406.307,443.817-408.174,441.289Z" transform="translate(421.932 -381.64)" fill="#48a7eb" opacity="0.818"/>
        <path id="Path_4959" data-name="Path 4959" d="M-408,440.147a26.942,26.942,0,0,1-2.362-29.532l3.65,10.2s0-11.345,4.722-13.648a20.462,20.462,0,0,1,8.8-2.158l-1.717,17.784,4.508-7.331s8.156,26.331,2.791,33.144S-406.28,442.475-408,440.147Z" transform="translate(422.345 -380.467)" fill="#40bbf0" opacity="0.864"/>
        <path id="Path_4960" data-name="Path 4960" d="M-407.823,439.006a24.611,24.611,0,0,1-2.156-26.98l3.333,9.317s0-10.366,4.315-12.469a18.708,18.708,0,0,1,8.04-1.973l-1.568,16.25,4.119-6.7s7.452,24.056,2.549,30.28S-406.253,441.133-407.823,439.006Z" transform="translate(422.758 -379.296)" fill="#39cff5" opacity="0.909"/>
        <path id="Path_4961" data-name="Path 4961" d="M-407.647,437.864a22.287,22.287,0,0,1-1.954-24.429l3.019,8.436s0-9.385,3.907-11.29A16.926,16.926,0,0,1-395.4,408.8l-1.42,14.712,3.729-6.065s6.747,21.781,2.308,27.417S-406.226,439.789-407.647,437.864Z" transform="translate(423.171 -378.123)" fill="#31e2fa" opacity="0.955"/>
        <path id="Path_4962" data-name="Path 4962" d="M-407.471,436.723a19.957,19.957,0,0,1-1.75-21.878l2.7,7.556s0-8.4,3.5-10.11a15.171,15.171,0,0,1,6.52-1.6l-1.272,13.174,3.339-5.431s6.044,19.5,2.069,24.552S-406.2,438.447-407.471,436.723Z" transform="translate(423.585 -376.951)" fill="#2af6ff"/>
      </g>
    </g>
  </g>
</svg>
