<svg xmlns="http://www.w3.org/2000/svg" width="196.132" height="66.734" viewBox="0 0 196.132 66.734">
  <g id="Group_1450" data-name="Group 1450" transform="translate(-478.096 -2502.511)">
    <g id="Group_1379" data-name="Group 1379" transform="translate(478.096 2502.511)">
      <rect id="Rectangle_608" data-name="Rectangle 608" width="196.132" height="66.734" rx="17" transform="translate(0)"/>
      <g id="Group_1374" data-name="Group 1374" transform="translate(19.045 8.341)">
        <path id="Path_5133" data-name="Path 5133" d="M370.5,830.144c-7.54,4.241-7.132,16.085,1.312,19.98a20.9,20.9,0,0,1-2.881,6.186,53.755,53.755,0,0,1-4.458,5.44,4.781,4.781,0,0,1-5.183,1.242c-1.563-.475-3.143-.892-4.707-1.363a8.124,8.124,0,0,0-4.916.119c-1.388.44-2.793.824-4.177,1.277a4.622,4.622,0,0,1-4.55-.806,20.455,20.455,0,0,1-3.088-3.081,30.471,30.471,0,0,1-6.65-16.115c-.438-4.124-.07-8.106,2.18-11.71,2.393-3.835,5.764-6.116,10.418-5.864a14.69,14.69,0,0,1,4.563,1.113,7.587,7.587,0,0,0,6.486,0,13.9,13.9,0,0,1,6.42-1.319A11.064,11.064,0,0,1,370.5,830.144Z" transform="translate(-331.041 -813.243)" fill="#fff"/>
        <path id="Path_5134" data-name="Path 5134" d="M357.213,815.676c1.033,5.1-4.751,12.315-9.71,11.205C346.479,822.01,352.52,815.037,357.213,815.676Z" transform="translate(-326.967 -815.635)" fill="#fff"/>
      </g>
      <text id="Download_on_the" data-name="Download on the" transform="translate(72.024 23.142)" fill="#fff" font-size="8" font-family="SegoeUI, Segoe UI"><tspan x="0" y="0">Download on the</tspan></text>
      <text id="App_Store" data-name="App Store" transform="translate(72.024 44.028)" fill="#fff" font-size="15" font-family="SegoeUI, Segoe UI"><tspan x="0" y="0">App Store</tspan></text>
    </g>
  </g>
</svg>
