<svg xmlns="http://www.w3.org/2000/svg" width="25.054" height="19.123" viewBox="0 0 25.054 19.123">
  <g id="Group_1443" data-name="Group 1443" transform="translate(-1026 -2488)">
    <path id="Icon_awesome-video" data-name="Icon awesome-video" d="M11.665,4.5H1.659A1.658,1.658,0,0,0,0,6.159V16.165a1.658,1.658,0,0,0,1.659,1.659H11.665a1.658,1.658,0,0,0,1.659-1.659V6.159A1.658,1.658,0,0,0,11.665,4.5Zm6.572,1.308-3.8,2.623v5.461l3.8,2.62a1.113,1.113,0,0,0,1.749-.9V6.7A1.113,1.113,0,0,0,18.237,5.808Z" transform="translate(1031.068 2489.299)" fill="#525252"/>
    <circle id="Ellipse_2279" data-name="Ellipse 2279" cx="5" cy="5" r="5" transform="translate(1026 2488)" fill="red"/>
  </g>
</svg>
