<svg xmlns="http://www.w3.org/2000/svg" xmlns:xlink="http://www.w3.org/1999/xlink" width="1091.429" height="317.712" viewBox="0 0 1091.429 317.712">
  <defs>
    <filter id="Rectangle_605" x="11.429" y="184.712" width="337" height="133" filterUnits="userSpaceOnUse">
      <feOffset input="SourceAlpha"/>
      <feGaussianBlur stdDeviation="8" result="blur"/>
      <feFlood flood-opacity="0.161"/>
      <feComposite operator="in" in2="blur"/>
      <feComposite in="SourceGraphic"/>
    </filter>
    <filter id="Rectangle_606" x="383.429" y="184.712" width="337" height="133" filterUnits="userSpaceOnUse">
      <feOffset input="SourceAlpha"/>
      <feGaussianBlur stdDeviation="8" result="blur-2"/>
      <feFlood flood-opacity="0.161"/>
      <feComposite operator="in" in2="blur-2"/>
      <feComposite in="SourceGraphic"/>
    </filter>
    <filter id="Rectangle_607" x="754.429" y="184.712" width="337" height="133" filterUnits="userSpaceOnUse">
      <feOffset input="SourceAlpha"/>
      <feGaussianBlur stdDeviation="8" result="blur-3"/>
      <feFlood flood-opacity="0.161"/>
      <feComposite operator="in" in2="blur-3"/>
      <feComposite in="SourceGraphic"/>
    </filter>
  </defs>
  <g id="Group_1449" data-name="Group 1449" transform="translate(-145.571 -1978.288)">
    <path id="Path_5132" data-name="Path 5132" d="M13055.288,3138s-93.094,95.726-59.369,167.79,324.373-92.362,324.373-92.362,197.733-113.08,405.521,113.364,285-137.833,285-137.833" transform="matrix(0.999, -0.035, 0.035, 0.999, -12942.895, -667.735)" fill="none" stroke="#707070" stroke-width="3" stroke-dasharray="13"/>
    <g id="Group_1327" data-name="Group 1327" transform="translate(-619.736 1392.088)">
      <g id="Group_1326" data-name="Group 1326" transform="translate(1342.736 605.912)">
        <path id="Rectangle_565" data-name="Rectangle 565" d="M2.733,0H114.9a2.732,2.732,0,0,1,2.732,2.732V76.843a2.732,2.732,0,0,1-2.732,2.732H2.733A2.733,2.733,0,0,1,0,76.843V2.733A2.733,2.733,0,0,1,2.733,0Z" fill="#0254e4"/>
        <rect id="Rectangle_566" data-name="Rectangle 566" width="106.939" height="66.899" transform="translate(5.347 6.339)" fill="#afeaf0"/>
      </g>
      <path id="Path_4976" data-name="Path 4976" d="M1364.644,619.151V651.92l31.9-16.385Z" transform="translate(20.959 12.666)" fill="#ff4c6b"/>
    </g>
    <g id="Group_1331" data-name="Group 1331" transform="translate(-1090.676 1327.193)">
      <path id="Path_4977" data-name="Path 4977" d="M1354.443,719.726h-6.32s-.91,8.61-2.559,9.634c0,0-2.034,10.171,5.718,10.171,9.382,0,5.719-10.171,5.719-10.171C1355.353,728.336,1354.443,719.726,1354.443,719.726Z" transform="translate(3.518 1.484)" fill="#e76f59"/>
      <g id="Group_1328" data-name="Group 1328" transform="translate(1345.229 710.595)">
        <path id="Path_4978" data-name="Path 4978" d="M1359.8,722.461c-.877-1.007-1.927.525-1.927.525s1.445-5.693,0-8.189-6.131-1.182-6.131-1.182-4.686-1.315-6.131,1.182,0,8.189,0,8.189-1.051-1.532-1.926-.525,1.445,3.547,1.97,3.854c0,0,3.371,6.307,6.087,6.307s6.087-6.307,6.087-6.307C1358.354,726.008,1360.675,723.469,1359.8,722.461Z" transform="translate(-1342.009 -710.16)" fill="#f9a57e"/>
        <path id="Path_4979" data-name="Path 4979" d="M1350.565,715.914s-3.547.623-3.941,2.529a7.514,7.514,0,0,0,.189,2.841,18.618,18.618,0,0,1,.3,3.138.546.546,0,0,1-.46-.079,6.481,6.481,0,0,1-1.2-1.45c-.675-.986-1.643-.821-1.922-.2,0,0-.788-9.344,3.12-9.673S1350.565,715.914,1350.565,715.914Z" transform="translate(-1342.011 -710.204)" fill="#292c3d"/>
        <path id="Path_4980" data-name="Path 4980" d="M1351.559,715.914s3.548.623,3.942,2.529a7.571,7.571,0,0,1-.189,2.841,18.5,18.5,0,0,0-.3,3.138.544.544,0,0,0,.46-.079,6.491,6.491,0,0,0,1.2-1.45c.674-.986,1.641-.821,1.921-.2,0,0,.787-9.344-3.121-9.673S1351.559,715.914,1351.559,715.914Z" transform="translate(-1340.697 -710.204)" fill="#292c3d"/>
        <path id="Path_4981" data-name="Path 4981" d="M1358.291,713.968a2.857,2.857,0,0,0-1.667-2.491,9.492,9.492,0,0,0-7.99,0c-2.76,1.38-3.6,1.691-4.4,1.232s-.3-.92-.3-.92-1.807-.016-1.718,2.787,3.533,6.283,8.035,6.283C1357.13,720.859,1359.354,716.053,1358.291,713.968Z" transform="translate(-1342.215 -710.595)" fill="#292c3d"/>
      </g>
      <path id="Path_4982" data-name="Path 4982" d="M1358.757,728.013c-.331,8.647-5.72,7.754-5.72,7.754s-5.386.893-5.717-7.754c0,0-8.6,2.378-12.8,5.191a83.113,83.113,0,0,1,1.9,15.935l4.919,19.049,11.7.579,11.7-.579,4.917-19.049a83.072,83.072,0,0,1,1.9-15.935C1367.357,730.391,1358.757,728.013,1358.757,728.013Z" transform="translate(1.763 2.831)" fill="#afeaf0"/>
      <path id="Path_4983" data-name="Path 4983" d="M1368.7,736.93c-5.348,2.85-7.947,9.407-13.141,12.62-5.373,3.325-9.176-3.391-11.79-6.884a20.3,20.3,0,0,0-8.6-6.846,81.334,81.334,0,0,1,1.145,12.049l4.919,19.049,11.7.579,11.7-.579,4.917-19.049A81.153,81.153,0,0,1,1370.664,736C1369.985,736.3,1369.321,736.6,1368.7,736.93Z" transform="translate(1.868 4.099)" fill="#5ac4e0"/>
      <path id="Path_4984" data-name="Path 4984" d="M1375.321,770.757c0-6.684-8.291-11.082-8.291-11.082h-27.86s-8.292,4.4-8.292,11.082a33.317,33.317,0,0,0,.669,5.16h9.255c-.375.679-.716,1.313-.987,1.847-.083.164-.176.307-.262.463h6.732c.507,0,1.469.212,1.326-.537-.2-1.063-.864-1.667-.216-2.783a3.852,3.852,0,0,1,2.87-1.614c.219,0,.437,0,.651,0q2.183.051,4.365,0a7.922,7.922,0,0,1,1.624.269c.471.078,1.089.081,1.357.557a7.281,7.281,0,0,1,.485,2.1,12.1,12.1,0,0,1-.154,2.011h9.44a24.226,24.226,0,0,1-1.617-2.31h8.234A33.324,33.324,0,0,0,1375.321,770.757Z" transform="translate(1.17 7.976)" fill="#0254e4"/>
      <path id="Path_4985" data-name="Path 4985" d="M1375.321,770.757c0-6.684-8.291-11.082-8.291-11.082h-27.86s-8.292,4.4-8.292,11.082a33.317,33.317,0,0,0,.669,5.16h9.255c-.375.679-.716,1.313-.987,1.847-.083.164-.176.307-.262.463h8.052c.209,0-.328-1.16-.375-1.266a2.088,2.088,0,0,1-.14-1.389,2.829,2.829,0,0,1,.922-1.238c1.318-1.111,3.149-1.154,4.787-1.108,1.6.047,3.365-.174,4.758.763a2.859,2.859,0,0,1,.717.613c.967,1.2.46,2.295.32,3.626h9.44a24.226,24.226,0,0,1-1.617-2.31h8.234A33.324,33.324,0,0,0,1375.321,770.757Z" transform="translate(1.17 7.976)" fill="#00a1cc" opacity="0.65" style="mix-blend-mode: multiply;isolation: isolate"/>
      <path id="Path_4986" data-name="Path 4986" d="M1335.907,732.478s-10.641,22.992-9.866,26.052c.193.765,13.134,8.579,19.226,7.459l2.48-.457S1338.7,732.313,1335.907,732.478Z" transform="translate(0.378 3.556)" fill="#afeaf0"/>
      <path id="Path_4987" data-name="Path 4987" d="M1368.013,732.478s10.641,22.992,9.866,26.052c-.193.765-13.134,8.579-19.226,7.459l-2.48-.457S1365.216,732.313,1368.013,732.478Z" transform="translate(5.282 3.556)" fill="#afeaf0"/>
      <path id="Path_4988" data-name="Path 4988" d="M1338.362,739.4a16.183,16.183,0,0,1-.407,3.357c-.942,4.154-2.424,8.491-.869,12.71a67.667,67.667,0,0,0,4.8,9.5,7.791,7.791,0,0,0,1.687-.1l2.48-.457S1341.908,749.18,1338.362,739.4Z" transform="translate(2.069 4.681)" fill="#5ac4e0"/>
      <path id="Path_4989" data-name="Path 4989" d="M1362.2,764.589a14.944,14.944,0,0,0,1.178-6.127c-.143-4.245-.166-8.491-.1-12.739.029-1.834.077-3.614.184-5.354-3.448,9.783-7.287,23.88-7.287,23.88l2.48.457A10.118,10.118,0,0,0,1362.2,764.589Z" transform="translate(5.282 4.839)" fill="#5ac4e0"/>
      <path id="Path_4990" data-name="Path 4990" d="M1342.394,803.492s-6.748,8.032-7.538,9.741,1.139,3.856,3.769,2.979,4.163-2.673,4.207-3.812,1.446-1.748,2.06-1.838,4.12-4.079,3.769-5.174-2.11-2.3-2.11-2.3Z" transform="translate(1.788 15.032)" fill="#292c3d"/>
      <path id="Path_4991" data-name="Path 4991" d="M1359.551,803.492s6.75,8.032,7.538,9.741-1.139,3.856-3.769,2.979-4.163-2.673-4.207-3.812-1.446-1.748-2.06-1.838-4.119-4.079-3.769-5.174,2.111-2.3,2.111-2.3Z" transform="translate(4.808 15.032)" fill="#292c3d"/>
      <g id="Group_1329" data-name="Group 1329" transform="translate(1323.675 781.284)">
        <rect id="Rectangle_567" data-name="Rectangle 567" width="2.2" height="46.422" transform="translate(4.317 3.741)" fill="#afeaf0"/>
        <rect id="Rectangle_568" data-name="Rectangle 568" width="2.2" height="46.422" transform="translate(55.155 3.741)" fill="#afeaf0"/>
        <rect id="Rectangle_569" data-name="Rectangle 569" width="60.213" height="5.948" fill="#292c3d"/>
      </g>
      <path id="Path_4992" data-name="Path 4992" d="M1345.383,769.738c-.8-1.912-.967-5.957-6.38-5.957-10.425,0-7.981,8.354-7.823,9.6,1.579,12.439,9.142,37.254,9.142,37.254h10.442s-3.8-30.407-4.384-35.1A32.628,32.628,0,0,0,1345.383,769.738Z" transform="translate(1.161 8.644)" fill="#0254e4"/>
      <path id="Path_4993" data-name="Path 4993" d="M1357.41,769.738c.8-1.912.967-5.957,6.38-5.957,10.432,0,7.982,8.354,7.823,9.6-1.578,12.439-9.142,37.254-9.142,37.254H1352.03s3.8-30.407,4.384-35.1A32.623,32.623,0,0,1,1357.41,769.738Z" transform="translate(4.608 8.644)" fill="#0254e4"/>
      <g id="Group_1330" data-name="Group 1330" transform="translate(1333.145 748.096)">
        <rect id="Rectangle_570" data-name="Rectangle 570" width="30.66" height="1.818" transform="translate(6.326 21.256)" fill="#292c3d"/>
        <path id="Path_4994" data-name="Path 4994" d="M1373.317,742.853h-39.679a1.838,1.838,0,0,0-1.774,2.389c.367,2.39,5.368,19.1,6.378,19.1h30.472c.887,0,6.01-16.711,6.377-19.1A1.838,1.838,0,0,0,1373.317,742.853Z" transform="translate(-1331.822 -742.853)" fill="#292c3d"/>
        <path id="Path_4995" data-name="Path 4995" d="M1352.321,753.034a1.641,1.641,0,1,1-1.642-1.641A1.641,1.641,0,0,1,1352.321,753.034Z" transform="translate(-1329.024 -741.465)" fill="#fff"/>
      </g>
    </g>
    <g id="Group_1340" data-name="Group 1340" transform="translate(-172.54 1532.706)">
      <g id="Group_1339" data-name="Group 1339" transform="translate(728.54 487.724)">
        <path id="Path_4996" data-name="Path 4996" d="M776.585,503.718s3.1,9.119,4.921,13.124c10.171,22.429-8.645,19.562-15.8,18.508s-15.305-3.758-14.858-9.543c.3-3.943,2.69-4.376,3.663-5.687s-.925-3.468-.1-6.7,6.23-3.89,7.3-4.78,3.224-3.363,2.165-8.043-1.507-7.186,1.52-10.234c3.043-3.063,7.789-1.722,7.789-1.722Z" transform="translate(-721.966 -487.539)" fill="#292c3d"/>
        <path id="Path_4997" data-name="Path 4997" d="M800.09,527.144c-.646-.5-3.157.918-4.968,1.511a19.927,19.927,0,0,1-4.724.445,16.835,16.835,0,0,1-.359,2.624c1.138.051,2.025.263,2.859.2.912-.069,2.558-.293,3.195-.411a2.917,2.917,0,0,1,2.027.23c2.017,1.678,3.145,1.8,3.416,1.194.043-.1-1.583-1.535-2.119-2.115.886.8,3.057,2.379,3.514,1.884.345-.373-1.685-2.222-2.541-2.972.905.78,3.235,2.722,3.8,2.564C805.727,531.867,800.736,527.645,800.09,527.144Z" transform="translate(-710.4 -476.127)" fill="#f9a57e"/>
        <rect id="Rectangle_571" data-name="Rectangle 571" width="25.313" height="3.246" transform="translate(73.158 55.902)" fill="#292c3d"/>
        <path id="Path_4998" data-name="Path 4998" d="M797.428,533.432l-.887,3.685s-11.662-1.263-15.626-3.105-7.945-11.278-7.945-11.278L776,510.847s5.862,15.486,7.91,17.431S797.428,533.432,797.428,533.432Z" transform="translate(-715.435 -480.903)" fill="#ff4c6b"/>
        <rect id="Rectangle_572" data-name="Rectangle 572" width="54.109" height="34.521" rx="1.837" transform="translate(77.44 11.574)" fill="#afeaf0"/>
        <path id="Path_4999" data-name="Path 4999" d="M791.157,528.8V499.04a2.378,2.378,0,0,1,2.379-2.379h-2.817a2.378,2.378,0,0,0-2.378,2.379V528.8a2.378,2.378,0,0,0,2.378,2.379h2.817A2.378,2.378,0,0,1,791.157,528.8Z" transform="translate(-710.901 -485.087)" fill="#292c3d"/>
        <path id="Path_5000" data-name="Path 5000" d="M810.22,533.786s1.092-10.487-3.687-14.036c0,0-1.092-.887.7-1.911s6.758-2.2,8.447.87,2.817,8.448,2.1,15.077Z" transform="translate(-705.633 -479.166)" fill="#292c3d"/>
        <g id="Group_1333" data-name="Group 1333" transform="translate(29.986 76.147)">
          <g id="Group_1332" data-name="Group 1332" transform="translate(6.006 3.481)">
            <rect id="Rectangle_573" data-name="Rectangle 573" width="2.239" height="58.976" fill="#afeaf0"/>
            <rect id="Rectangle_574" data-name="Rectangle 574" width="2.239" height="58.976" transform="translate(41.449)" fill="#afeaf0"/>
          </g>
          <rect id="Rectangle_575" data-name="Rectangle 575" width="55.7" height="5.767" fill="#292c3d"/>
        </g>
        <path id="Path_5001" data-name="Path 5001" d="M776.331,574.376s-5.681,4.951-5.651,5.669,9.724,17.194,11.412,17.246,2.082-2.806,1.808-3.89-3.385-16.8-3.385-16.8Z" transform="translate(-716.111 -462.165)" fill="#292c3d"/>
        <path id="Path_5002" data-name="Path 5002" d="M769.92,576.741s-5.529,5.12-5.478,5.836,10.238,16.894,11.928,16.894,2-2.866,1.69-3.942-3.891-16.689-3.891-16.689Z" transform="translate(-717.951 -461.467)" fill="#292c3d"/>
        <path id="Path_5003" data-name="Path 5003" d="M775.067,535s7.184,3.421,15.448,6.643c5.245,2.045,12.57,4.725,12.332,10.352-.175,4.1-16.689,43.643-16.689,43.643l-7.51-3.754s13.742-33.282,13.5-35.542-1.836-.262-15.423-1.493-17.708-3.816-17.615-10.266,3.645-15.459,9.145-17.751S775.067,535,775.067,535Z" transform="translate(-719.523 -476.284)" fill="#4d505e"/>
        <path id="Path_5004" data-name="Path 5004" d="M775.067,535s2.74,3.49,11,6.712c5.243,2.045,11.756,5.787,11.75,9.389-.005,4.106-15.382,42.679-15.382,42.679l-3.792-1.9s13.742-33.282,13.5-35.542-1.836-.262-15.423-1.493-17.708-3.816-17.615-10.266,3.645-15.459,9.145-17.751S775.067,535,775.067,535Z" transform="translate(-719.523 -476.284)" fill="#3d3848"/>
        <path id="Path_5005" data-name="Path 5005" d="M772.88,529.515s2.185,9.109,7.372,11.293,17.105,4.627,17.1,10.375c0,4.108-17.781,44.778-17.781,44.778l-9.113-4.266s12.038-32.91,11.731-35.162.89-1.146-12.728-1.966-15.454-3.419-15.556-9.87,8.261-15.183,8.261-15.183A13.944,13.944,0,0,1,772.88,529.515Z" transform="translate(-721.059 -475.719)" fill="#4d505e"/>
        <path id="Path_5006" data-name="Path 5006" d="M773.413,500.259s-2.15,8.8,1.844,13.31c0,0,5.324,7.168-3.073,8.4s-7.3-9.8-7.3-9.8,1.434-12.151-.75-17.407C764.131,494.763,769.591,497.767,773.413,500.259Z" transform="translate(-718.043 -485.647)" fill="#e76f59"/>
        <path id="Path_5007" data-name="Path 5007" d="M767.789,489.424s11.512.584,11.585,3.432-.969,4.715-.584,7.2c.828,5.355-2.287,11.244-3.65,11.488-2.108.377-9.249-2.774-10.367-7.107S763.36,487.7,767.789,489.424Z" transform="translate(-718.062 -487.27)" fill="#f9a57e"/>
        <path id="Path_5008" data-name="Path 5008" d="M775.73,529.371s2.406.308,2.917.308,7.168-3.737,7.885-3.226,7.473,5.221,7.269,6.143-2.1.366-5.682-2.662c0,0,4.778,3.38,3.856,4.2s-5.085-2.967-5.085-2.967,4.3,3.206,3.276,3.923-4.812-3.105-4.812-3.105,2.969,2.867,2.56,3.345-2.287-.342-4.334-2.253c0,0-.376-.2-1.469.375s-7.781-.546-7.781-.546Z" transform="translate(-715.034 -476.314)" fill="#f9a57e"/>
        <path id="Path_5009" data-name="Path 5009" d="M779.406,498.72s-8.018,1.826-10.638-4.325c-2.069-4.859-1.36-5.449-1.36-5.449s4.424-3.443,9.632,1.232C780.529,493.308,779.406,498.72,779.406,498.72Z" transform="translate(-717.11 -487.724)" fill="#292c3d"/>
        <path id="Path_5010" data-name="Path 5010" d="M769.737,488.57s4.263,3.744,1.9,7.3c-2.13,3.206-.721,4.927-1.168,7.08a2.379,2.379,0,0,1-1.243-1.47c-.219-1-.552-3.531-1.891-3.166s-2.587,2.023-.008,4.14c0,0,1.4,2.883-.412,5.159,0,0-6.871-5.9-4.881-12.546S769.737,488.57,769.737,488.57Z" transform="translate(-718.768 -487.474)" fill="#292c3d"/>
        <path id="Path_5011" data-name="Path 5011" d="M776.7,508.854s.526,4.17-.976,4.921-6.826-7.1-6.826-7.1-7.247,3.046-8.886,4.378.745,14.11.745,14.11-5.044,15.318-4.412,18.6,22.707-.642,22.707-.642,2.133-15.633,2.952-17.953,1.883-3.7.818-7.089c-1.5-4.778-1.9-6-1.9-6A23.432,23.432,0,0,0,776.7,508.854Z" transform="translate(-720.355 -482.133)" fill="#ff4c6b"/>
        <path id="Path_5012" data-name="Path 5012" d="M763.543,521.412c-1.656-2.221-.664-5.932-2.4-8.218-.527-.694-1.076-1.365-1.628-2.03-.43,3.682,1.248,12.676,1.248,12.676s-5.044,15.318-4.412,18.6,22.707-.642,22.707-.642,1.878-13.76,2.787-17.377c-.563.838-5.03,6.282-9.938,5.524C769.145,529.515,766.887,525.9,763.543,521.412Z" transform="translate(-720.355 -480.81)" fill="#da395b"/>
        <path id="Path_5013" data-name="Path 5013" d="M766.976,497.324s-.132,1.7,1.314,2.094c.6.163.537,2.025,1.016,3.9.913,3.569.333,6-2.323,7.032-1.906.743-4.6,1.332-7.669,3.482s-1.1-6.817,2.774-9.089S766.976,497.324,766.976,497.324Z" transform="translate(-719.907 -484.892)" fill="#292c3d"/>
        <path id="Path_5014" data-name="Path 5014" d="M822.555,534.427h-16.12a1.3,1.3,0,0,1-1.167-1.888l.948-1.9a1.3,1.3,0,0,1,1.167-.721h14.224a1.306,1.306,0,0,1,1.167.721l.948,1.9A1.3,1.3,0,0,1,822.555,534.427Z" transform="translate(-705.95 -475.277)" fill="#292c3d"/>
        <g id="Group_1338" data-name="Group 1338" transform="translate(0 59.151)">
          <g id="Group_1337" data-name="Group 1337">
            <rect id="Rectangle_576" data-name="Rectangle 576" width="141.225" height="3.782" fill="#7695a8"/>
            <g id="Group_1336" data-name="Group 1336" transform="translate(5.222 1.618)">
              <g id="Group_1334" data-name="Group 1334">
                <rect id="Rectangle_577" data-name="Rectangle 577" width="1.638" height="77.836" fill="#7695a8"/>
              </g>
              <g id="Group_1335" data-name="Group 1335" transform="translate(129.143)">
                <rect id="Rectangle_578" data-name="Rectangle 578" width="1.638" height="77.836" fill="#7695a8"/>
              </g>
            </g>
          </g>
        </g>
        <path id="Path_5015" data-name="Path 5015" d="M785.506,534.135l-.409,4.758s-28.055.294-32.287-.252-6.143-6.143-3.412-11.058,10.853-17.679,14.4-17.952,5.6,4.574,2.662,9.83-8.261,10.307-7.1,11.194S785.506,534.135,785.506,534.135Z" transform="translate(-722.763 -481.265)" fill="#ff4c6b"/>
      </g>
    </g>
    <g id="Group_1361" data-name="Group 1361" transform="translate(445.927 1783.651)">
      <path id="Path_5022" data-name="Path 5022" d="M551.11,250.244l3.235,46.7,35.649,2.223-.987-47.644Z" transform="translate(17.352 11.483)" fill="#afeaf0"/>
      <path id="Path_5023" data-name="Path 5023" d="M580.474,249.327c-2.882-.868-9.459,25.134-8.434,29.306.7,2.863,24.961,1.825,24.961,1.825l.255-4.989s-15.39-1.745-15.312-3,4.548-9.575,4.548-9.575S583.386,250.205,580.474,249.327Z" transform="translate(23.578 11.203)" fill="#afeaf0"/>
      <path id="Path_5024" data-name="Path 5024" d="M571.458,237.517l-6.537,1.018s1.838,5.809-.979,10.766c0,0,4.7,5.089,7.974,3.744a3.855,3.855,0,0,0,2.2-4.974S570.546,245.245,571.458,237.517Z" transform="translate(21.189 7.678)" fill="#e76f59"/>
      <path id="Path_5025" data-name="Path 5025" d="M564.5,229.889s10.184-1.166,10.889.546.859,6.534,1.518,7.552,1.854,2.237,1.408,2.893-.938.5-1.22,1.234-.173,4.906-1.518,5.527-8.206.256-10.691-3.653S559.583,230.249,564.5,229.889Z" transform="translate(20.548 5.281)" fill="#f9a57e"/>
      <path id="Path_5026" data-name="Path 5026" d="M562.464,230.607l6.753,3.127a15.166,15.166,0,0,0,1.732,7.38s-.608.93-1.244.4a2.475,2.475,0,0,1-1.2-1.791c-.149-.979-.738-3.612-2.507-2.313s.1,2.84,1,3.223c0,0,1.432,5.127-1.291,4.762,0,0-2.511-1.591-4.674-7.751S560.781,229.452,562.464,230.607Z" transform="translate(20.031 5.52)" fill="#292c3d"/>
      <path id="Path_5027" data-name="Path 5027" d="M578.42,229.488s2.415,3.473-3.2,5.8-13.685-3.8-13.685-3.8.207-3.046,4.683-4.35c3.346-.974,6.482-.837,8.189,1.1C577.311,231.531,578.42,229.488,578.42,229.488Z" transform="translate(20.47 4.398)" fill="#292c3d"/>
      <g id="Group_1347" data-name="Group 1347" transform="translate(574.777 313.148)">
        <rect id="Rectangle_579" data-name="Rectangle 579" width="1.948" height="51.305" fill="#afeaf0"/>
        <rect id="Rectangle_580" data-name="Rectangle 580" width="1.948" height="51.305" transform="translate(36.057)" fill="#afeaf0"/>
      </g>
      <rect id="Rectangle_581" data-name="Rectangle 581" width="48.454" height="6.713" transform="translate(569.552 308.423)" fill="#292c3d"/>
      <path id="Path_5028" data-name="Path 5028" d="M566.835,245.272s-9.116,2.537-9.492,2.763c0,0,1.007,13.189.857,16.74s-1.581,18.753-1.581,18.753h28.328s-.34-15.467-.19-18.868c0,0-.909-11.483.294-14.128a75.41,75.41,0,0,0-8.75-4.78s.042,3.737-1.947,4.758S566.835,245.272,566.835,245.272Z" transform="translate(19 9.997)" fill="#afeaf0"/>
      <path id="Path_5029" data-name="Path 5029" d="M584.759,263.45s-.069-1.58-.1-3.713a34.541,34.541,0,0,1-2.039,5.532c-1.849,3.818-6.422,9.1-11.286,8.537-4.883-.564-8.776-4.9-9.994-9.633-.917-3.562-.466-7.45-1.665-10.924a14.457,14.457,0,0,0-2.149-3.927c.283,4,.785,11.662.675,14.242-.151,3.551-1.581,18.753-1.581,18.753h28.328S584.608,266.851,584.759,263.45Z" transform="translate(19 11.208)" fill="#5ac4e0"/>
      <g id="Group_1348" data-name="Group 1348" transform="translate(588.225 279.686)">
        <path id="Path_5030" data-name="Path 5030" d="M579.848,275.2l-6.435-10.909s-1.534-.9-1.543.969l7.428,10.369S581.01,277.738,579.848,275.2Z" transform="translate(-564.666 -264.069)" fill="#292c3d"/>
        <path id="Path_5031" data-name="Path 5031" d="M578.977,271.063a6.725,6.725,0,0,0-2.142-2.4c-1.051-.54-5.778,1.386-6.108,1.469-.173.043-3.16.942-3.775.737a27.211,27.211,0,0,1-.629,3.245c1.1.413,4.649-.277,5.093-.343a3.391,3.391,0,0,1,2.447.688c.742.526,1.448.965,1.976.86.491-.1-.033-.75-.333-1.1l.026.027c1.316,1.6,2,1.356,2.258,1.021.33-.425-1.426-1.913-1.6-2.116s-1.648-1.352-1.648-1.352a6.616,6.616,0,0,1,1.894,1.324c.166.17,1.937,2.858,2.541,2.038s-.873-2.2-1.463-3.051a6.737,6.737,0,0,0-1.969-1.6c.722-.1,1.956,1.264,2.368,1.741s1.486,2.73,2.341,2.163S579.475,271.762,578.977,271.063Zm-3.6,3.019a13.969,13.969,0,0,0-1.412-1.051A7.6,7.6,0,0,1,575.378,274.082Z" transform="translate(-566.324 -262.724)" fill="#f9a57e"/>
        <path id="Path_5032" data-name="Path 5032" d="M575.882,269.019s1.75.672,2.055,1.454-.175,1.248-.59,1.065Z" transform="translate(-563.466 -262.59)" fill="#f9a57e"/>
      </g>
      <path id="Path_5033" data-name="Path 5033" d="M560.074,247.4a16.307,16.307,0,0,0-4.4,4.756c-1.413,2.659-9.115,22.876-8.09,27.049.7,2.863,24.961,1.825,24.961,1.825l.255-4.989s-15.39-1.745-15.311-3,4.548-9.575,4.548-9.575S564.469,253.229,560.074,247.4Z" transform="translate(16.269 10.633)" fill="#afeaf0"/>
      <path id="Path_5034" data-name="Path 5034" d="M588.6,323s8.121,2.188,11.482,3.263c2.792.895,2.436,3.4-.559,4.566s-5.573.773-6.351-.142-2.467-.412-3.092-.045-6.443-.426-6.83-1.589.177-5.8.177-5.8Z" transform="translate(26.922 33.237)" fill="#292c3d"/>
      <path id="Path_5035" data-name="Path 5035" d="M578.583,323.7s7.914,2.851,11.173,4.2c2.71,1.122,2.146,3.592-.933,4.5s-5.618.31-6.318-.666-2.425-.613-3.077-.3-6.386-.956-6.676-2.147,1.221-6.791,1.221-6.791Z" transform="translate(23.812 33.087)" fill="#292c3d"/>
      <path id="Path_5036" data-name="Path 5036" d="M599.1,290.727c-.895-3.323-17.44-13.373-18.79-16.4H566.946a21.781,21.781,0,0,0-3.537,10.224c-.848,8.489,7,5.579,14.775,5.861s10.914,5.069,11.117,7.19-1.185,40.645-1.185,40.645l10.559-.06S599.631,292.707,599.1,290.727Z" transform="translate(21.011 18.684)" fill="#0254e4"/>
      <path id="Path_5037" data-name="Path 5037" d="M591.577,338.222s3.506-46.013,2.721-47.2c-2.414-3.662-14.134-12.273-18.158-16.27l-9.194-.421a21.781,21.781,0,0,0-3.537,10.224c-.848,8.489,7,5.579,14.775,5.861s10.914,5.069,11.117,7.19-1.185,40.645-1.185,40.645Z" transform="translate(21.011 18.684)" fill="#00a1cc" opacity="0.65" style="mix-blend-mode: multiply;isolation: isolate"/>
      <path id="Path_5038" data-name="Path 5038" d="M594.675,291.927c-.626-2.92-17.885-13.133-21.5-17.038l-14.159-.973a12.779,12.779,0,0,0-3.431,8.194c.073,8.151,6.216,10.117,14,10.349,8.969.269,13.576,1.424,13.563,3.557s-5.528,42.178-5.528,42.178l10.462.538S595.1,293.932,594.675,291.927Z" transform="translate(18.69 18.561)" fill="#0254e4"/>
      <g id="Group_1351" data-name="Group 1351" transform="translate(605.118 211.837)">
        <g id="Group_1349" data-name="Group 1349" transform="translate(83.11 19.195)">
          <path id="Path_5039" data-name="Path 5039" d="M643.309,242.12a62.147,62.147,0,0,0,3.27-6.205c.868-2.175,4.352-9.713,5.464-8.921s-2.007,7.113-2.007,7.113,2.751-7.915,4.24-7.476-2.545,7.811-2.545,7.811,3.318-6.948,4.185-6.278.184,2.217-2.668,7.36c0,0,2.434-4.414,3.354-3.38s-2.047,5.087-3.124,6.043-6.168,5-7.385,6.705C646.093,244.892,643.364,243.94,643.309,242.12Z" transform="translate(-643.309 -226.613)" fill="#f9a57e"/>
          <path id="Path_5040" data-name="Path 5040" d="M647.437,234.888s3.65-2.074,4.669-1.272-.01,1.642-3.794,2.863c0,0-1.337,1.7-2.189,1.83A2.543,2.543,0,0,1,647.437,234.888Z" transform="translate(-642.537 -224.575)" fill="#ffb089"/>
        </g>
        <path id="Path_5041" data-name="Path 5041" d="M591.594,238.954a16.682,16.682,0,0,1-1.415-3.629c0-.821.413-1.7.443-2.824s1.531-3.714,1.208-4.452-1.238-.56-2.123,1.209-.59,2.859-1.3,2.358a19.43,19.43,0,0,1-3.006-3.6c-.56-.914-2.329-2.712-2.8-2.417s-.6.766,2.529,5.186c0,0-3.547-5.319-4.592-4.359-.73.67,2.734,4.563,3.236,5.182,0,0-3.209-4.026-4.165-3.075-.9.892,3.515,4.244,3.515,4.244s-3.294-2.608-3.736-1.842,1.474,2.46,3.361,3.522,2.371,1.342,2.85,2.048a37.153,37.153,0,0,1,1.659,3.537S590.268,240.782,591.594,238.954Z" transform="translate(-579.329 -207.73)" fill="#f9a57e"/>
        <path id="Path_5042" data-name="Path 5042" d="M622.23,221.859l-6.708,1.024s-.383,12.526-5.688,13.528c0,0-1.886,20.514,5.128,18.8S625.751,235.7,625.751,235.7,619.565,233.992,622.23,221.859Z" transform="translate(-570.277 -208.84)" fill="#e76f59"/>
        <path id="Path_5043" data-name="Path 5043" d="M622.793,215.077s-7.238-2.98-10.111-1.17-2.638,8.049-3.067,10.909c-.669,4.47,1.257,8.834,2.429,9.259s10.216-2.021,11.653-8.567S624.5,216.194,622.793,215.077Z" transform="translate(-570.315 -211.392)" fill="#f9a57e"/>
        <path id="Path_5044" data-name="Path 5044" d="M615.169,319.809s.978,6.021.251,7.419c-.766,1.473-16.009.762-16.921-.23s.608-2.72,1.405-3.12,9.081-4.029,9.081-4.029Z" transform="translate(-573.681 -179.554)" fill="#292c3d"/>
        <path id="Path_5045" data-name="Path 5045" d="M627.708,319.809h-5.321s-.353,4.471,0,5.473,5.379,7.208,7.973,7.208c1.415,0,3.159.007,3.433-1.252.227-1.05-.808-3.262-1.665-4.448C630.242,324.179,627.708,319.809,627.708,319.809Z" transform="translate(-566.502 -179.554)" fill="#292c3d"/>
        <path id="Path_5046" data-name="Path 5046" d="M622.226,226.9a13.956,13.956,0,0,1-4.27,1.556c-1.677.119-2.71-1.868-5.069-1.357s-2.662.6-2.662.6-1.251,8.464,1.942,8.225,8.621-3.592,10.537-5.868a4.192,4.192,0,0,0,3.272-1.955c1.278-1.956,2.994-8.023,1.876-11.695s-6.066-5.109-8.141-3.392a6.9,6.9,0,0,0-4.591-1.157c-3.007.158-3.629,1.755-4.908,2.714s-2.528.957-2.953.132c0,0-.905,1.517.718,4.124s3.5,2.208,6.025,1.624,5.667-3.086,5.667-3.086-.134,5.214,1.17,7.13c0,0,.479.213.665,0s.053-2.927,1.517-2.315S623.53,225.871,622.226,226.9Z" transform="translate(-571.052 -211.837)" fill="#292c3d"/>
        <path id="Path_5047" data-name="Path 5047" d="M611.1,225.365a8.017,8.017,0,0,0,3.992.187s-1.178,1.55-2.475,1.33A1.7,1.7,0,0,1,611.1,225.365Z" transform="translate(-569.828 -207.792)" fill="#fff"/>
        <path id="Path_5048" data-name="Path 5048" d="M623.454,231.064l-6.206,3.358-4.824-2.9a44.011,44.011,0,0,0-1.75,15.749c.707,8.371,2.063,14.384,7.721,6.6S626.155,233.776,623.454,231.064Z" transform="translate(-569.995 -206.088)" fill="#fff"/>
        <path id="Path_5049" data-name="Path 5049" d="M623.454,231.064l-6.206,3.358-4.824-2.9a44.011,44.011,0,0,0-1.75,15.749c.707,8.371,2.063,14.384,7.721,6.6S626.155,233.776,623.454,231.064Z" transform="translate(-569.995 -206.088)" fill="#fff"/>
        <path id="Path_5050" data-name="Path 5050" d="M615.729,238.256s-3.332,18.044-3.05,18.39c.183-.23,2.211,4.895,3.384,0,.912-3.807,1.022-17.975,1.169-18.147,0,0,1.741-1.873,2.758-2.8.666-.605,1.312-1.225,1.936-1.868.162-.295.32-.591.457-.909l-.273.644a15.158,15.158,0,0,1,1.312-2.1,2.569,2.569,0,0,0-.32-.4l-6.206,3.358-4.824-2.9s-.143.434-.348,1.194c.508.707.965,1.421,1.361,2.106C613.592,235.7,615.729,238.256,615.729,238.256Z" transform="translate(-569.643 -206.088)" fill="#292c3d"/>
        <path id="Path_5051" data-name="Path 5051" d="M605.2,257l19.042-.36s2.9,4.748,3.545,18.449c.443,9.381.827,11.979,1.76,24.379.633,8.419,3.619,40.684,3.619,40.684h-10.12s-4.284-36.819-4.5-38.824c-.078-.709-2.584-20.176-2.584-20.176s.41,17.632.41,19.684.442,38.276.442,38.276H606.149s-1.2-30.8-1.3-37.851C604.686,289.852,603.711,260.688,605.2,257Z" transform="translate(-571.837 -198.44)" fill="#292c3d"/>
        <path id="Path_5052" data-name="Path 5052" d="M614.809,231.419s-6.7,1.3-9.3,2.158c0,0,.825,15.479-1.768,19.368l-1.18,33.718s14.677-.177,15.15-18.451.442-19.1.442-19.1Z" transform="translate(-572.381 -205.982)" fill="#4d505e"/>
        <g id="Group_1350" data-name="Group 1350" transform="translate(42.297 44.666)">
          <path id="Path_5053" data-name="Path 5053" d="M613.847,246.8a.563.563,0,1,1-.552-.574A.563.563,0,0,1,613.847,246.8Z" transform="translate(-611.641 -246.222)" fill="#292c3d"/>
          <path id="Path_5054" data-name="Path 5054" d="M613.57,251.057a.563.563,0,1,1-.552-.573A.563.563,0,0,1,613.57,251.057Z" transform="translate(-611.724 -244.948)" fill="#292c3d"/>
          <path id="Path_5055" data-name="Path 5055" d="M613.293,255.319a.563.563,0,1,1-.552-.574A.562.562,0,0,1,613.293,255.319Z" transform="translate(-611.807 -243.674)" fill="#292c3d"/>
          <path id="Path_5056" data-name="Path 5056" d="M613.018,259.58a.564.564,0,1,1-.553-.574A.564.564,0,0,1,613.018,259.58Z" transform="translate(-611.89 -242.4)" fill="#292c3d"/>
        </g>
        <path id="Path_5057" data-name="Path 5057" d="M631.773,235.343l-9.146-4.279-7.682,18.156-1.633,21.207s.188,18.643,16.1,16.341l-1.294-34.2S628,240.034,631.773,235.343Z" transform="translate(-569.168 -206.088)" fill="#4d505e"/>
        <path id="Path_5058" data-name="Path 5058" d="M653.963,241.927l-5.542-4.007s-10.257,16.191-10.846,15.7-5.482-17.523-9.2-19.26c0,0-1.876,1.342-2.947,5.271-.757,2.779-.868,7.259-.7,11.677,0,0,9.664,14.317,13.083,13.846S653.963,241.927,653.963,241.927Z" transform="translate(-565.774 -205.103)" fill="#4d505e"/>
        <path id="Path_5059" data-name="Path 5059" d="M590.432,234.74l-6.274,2.5s8.586,31.028,13.538,28.3,11.529-12.391,11.529-12.391a23.017,23.017,0,0,0,2.546-7.72c.634-4.145.243-9.827-.753-12.355,0,0-4.362,2.655-8.016,9.95s-4.772,9.385-5.1,8.931S590.432,234.74,590.432,234.74Z" transform="translate(-577.885 -205.485)" fill="#4d505e"/>
        <path id="Path_5060" data-name="Path 5060" d="M611.759,232.475c-.044.16,1.628,5.983,1.628,5.983l3.5-2.621,2.977,2.784,3.145-6.656-.515-.651-3.75,2.029-1.858,1.669-4.1-3.124-.242-.145Z" transform="translate(-569.633 -206.013)" fill="#abacb3" opacity="0.55" style="mix-blend-mode: multiply;isolation: isolate"/>
        <path id="Path_5061" data-name="Path 5061" d="M616.939,234.305l-4.315-3.291-1.043.968,1.671,5.91,3.687-2.762,3.32,3.105,3.205-6.669-1.61-1.681Z" transform="translate(-569.686 -206.44)" fill="#fff"/>
      </g>
      <g id="Group_1352" data-name="Group 1352" transform="translate(603.388 264.39)">
        <rect id="Rectangle_582" data-name="Rectangle 582" width="32.297" height="1.967" transform="translate(3.006 25.709)" fill="#3f6a85"/>
        <rect id="Rectangle_583" data-name="Rectangle 583" width="36.984" height="26.692" rx="1.484" transform="translate(0.663)" fill="#292c3d"/>
        <path id="Path_5062" data-name="Path 5062" d="M579.7,277.059V254.222a1.928,1.928,0,0,1,1.928-1.928h-1.707A1.927,1.927,0,0,0,578,254.222v22.838a1.928,1.928,0,0,0,1.926,1.928h1.707A1.929,1.929,0,0,1,579.7,277.059Z" transform="translate(-577.997 -252.294)" fill="#5b5d6a"/>
        <path id="Path_5063" data-name="Path 5063" d="M595.025,262.995a1.855,1.855,0,1,1-1.855-1.855A1.856,1.856,0,0,1,595.025,262.995Z" transform="translate(-574.015 -249.649)" fill="#fff"/>
      </g>
      <g id="Group_1353" data-name="Group 1353" transform="translate(652.515 265.554)">
        <rect id="Rectangle_584" data-name="Rectangle 584" width="24.329" height="3.478" transform="translate(6.579 23.034)" fill="#292c3d"/>
        <path id="Path_5064" data-name="Path 5064" d="M615.816,253.642l7.882,24.445,1.232-.452-7.882-24.445Z" transform="translate(-615.816 -253.19)" fill="#292c3d"/>
      </g>
      <path id="Path_5065" data-name="Path 5065" d="M652.1,319.55s-6.477,3.19-9.949,4.627c-2.885,1.194-2.286,3.824.992,4.8s5.982.332,6.729-.707,2.582-.653,3.276-.32,6.168-.927,6.475-2.2-1.048-6.852-1.048-6.852Z" transform="translate(44.018 32.011)" fill="#292c3d"/>
      <path id="Path_5066" data-name="Path 5066" d="M685.1,273.1l-11.008.144s-26.931,10.046-30.448,12.685,5.782,48.621,5.782,48.621l9.137-.956s-2.155-41.144-.4-42.9,30.268-4.361,32.064-4.9C691.99,285.263,689.481,278.946,685.1,273.1Z" transform="translate(44.781 18.317)" fill="#4d505e"/>
      <path id="Path_5067" data-name="Path 5067" d="M685.1,273.1l-11.008.144s-26.931,10.046-30.448,12.685,5.782,48.621,5.782,48.621l9.137-.956s-2.155-41.144-.4-42.9,30.268-4.361,32.064-4.9C691.99,285.263,689.481,278.946,685.1,273.1Z" transform="translate(44.781 18.317)" fill="#3d3848"/>
      <g id="Group_1355" data-name="Group 1355" transform="translate(696.234 265.329)">
        <path id="Path_5068" data-name="Path 5068" d="M696.211,254.565l-11.18,44.7L680.4,298.1l9.615-45.088Z" transform="translate(-640.225 -253.016)" fill="#afeaf0"/>
        <g id="Group_1354" data-name="Group 1354" transform="translate(4.968 47.546)">
          <rect id="Rectangle_585" data-name="Rectangle 585" width="1.852" height="48.784" fill="#afeaf0"/>
          <rect id="Rectangle_586" data-name="Rectangle 586" width="1.852" height="48.784" transform="translate(34.285)" fill="#afeaf0"/>
        </g>
        <rect id="Rectangle_587" data-name="Rectangle 587" width="46.074" height="6.383" transform="translate(0 43.054)" fill="#292c3d"/>
      </g>
      <path id="Path_5069" data-name="Path 5069" d="M674.573,237.012l-6.318,1.348s1.819,7.768,0,12.048c0,0,3.445,1.354,9.249-3.044C677.5,247.365,673.928,244.341,674.573,237.012Z" transform="translate(52.377 7.527)" fill="#e76f59"/>
      <path id="Path_5070" data-name="Path 5070" d="M677.058,230.5s-7.028-2.647-8.912-1.68-4.176,2.393-3.819,3.819.624,5.64.165,6.964-1.247,2.241-1.056,2.7,1.3.1,1.6.66,1.947,4.267,2.9,4.8,6.405-1.387,8.925-7.307S678.625,231.509,677.058,230.5Z" transform="translate(50.928 5.015)" fill="#f9a57e"/>
      <path id="Path_5071" data-name="Path 5071" d="M646.493,319.946s-8.459,2.951-11.944,4.354c-2.9,1.165-2.324,3.8.946,4.8s5.979.391,6.735-.64,2.588-.629,3.28-.287,6.175-.868,6.5-2.133-.457-4.969-.457-4.969Z" transform="translate(41.739 32.323)" fill="#292c3d"/>
      <path id="Path_5072" data-name="Path 5072" d="M673.333,228.809s2.407-2.675,5.119-1.108,1.65,4.059,2.215,5.156a6.718,6.718,0,0,1-.213,7.016c-1.472,2.6-.587,4.279-3.025,4.545s-3.179-.446-3.179-.446a9.4,9.4,0,0,0,.955-3.819s2.089-1.159,1.808-2.967a1.553,1.553,0,0,0-3.081-.178c-.586,1.859.459,3.132-.917,4.023,0,0-.815.23-.815-1.833a19.787,19.787,0,0,1,.382-3.8s-4.935,2.619-8.738,0-1.176-6.739,1.587-7.681A9.079,9.079,0,0,1,673.333,228.809Z" transform="translate(50.49 4.596)" fill="#292c3d"/>
      <path id="Path_5073" data-name="Path 5073" d="M688.742,271.845l-12.294,2.449S648.516,284.382,645,287.02s-4.146,47.9-4.146,47.9l9.17.886s3.925-43.029,6.071-44.285c1.851-1.085,31.9-1.085,33.776-1.085C692.578,290.44,694.908,278.068,688.742,271.845Z" transform="translate(44.184 17.942)" fill="#4d505e"/>
      <path id="Path_5074" data-name="Path 5074" d="M641.643,269.97s-1.854.226-2.247.222-5.479-3.086-6.035-2.68-5.795,4.15-5.645,4.9,1.608.316,4.394-2.1c0,0-3.7,2.685-3,3.355s3.937-2.349,3.937-2.349-3.336,2.549-2.555,3.138,3.729-2.465,3.729-2.465-2.31,2.289-2,2.678,1.763-.255,3.354-1.78c0,0,.291-.161,1.126.317s5.99-.369,5.99-.369Z" transform="translate(40.255 16.635)" fill="#f9a57e"/>
      <path id="Path_5075" data-name="Path 5075" d="M637.424,274.711l1.569,5.892s25.438-5.745,28.01-7.651,17.978-18.587,15.718-23.234-5.191-3.5-7.034-.864-10.632,13.9-11.888,15.215S637.424,274.711,637.424,274.711Z" transform="translate(43.159 10.38)" fill="#0254e4"/>
      <path id="Path_5076" data-name="Path 5076" d="M644.015,272.085s-1.946.226-2.36.221-5.755-3.085-6.339-2.679-6.087,4.149-5.93,4.9,1.69.316,4.615-2.1c0,0-3.89,2.686-3.154,3.357s4.136-2.35,4.136-2.35-3.5,2.55-2.684,3.138,3.917-2.464,3.917-2.464-2.425,2.289-2.1,2.678,1.851-.255,3.523-1.78c0,0,.305-.162,1.182.317s6.292-.369,6.292-.369Z" transform="translate(40.755 17.268)" fill="#f9a57e"/>
      <path id="Path_5077" data-name="Path 5077" d="M678.365,244.64s-5.7,2.885-8.916,2.7c0,0-5.213,10.957-5.565,13.889s.6,22.056.6,22.056,12.614,2.741,20.051-1.012c0,0-2-12.483-1.182-18.7S683.52,249.246,678.365,244.64Z" transform="translate(51.047 9.808)" fill="#0254e4"/>
      <path id="Path_5078" data-name="Path 5078" d="M675.928,263.3c1.26-2.906,6.192-7.589,3.71-10.85-2-2.624-3.428-2.8-5.622-.3a74.761,74.761,0,0,1-6.269,6.937,39.8,39.8,0,0,1-3.941,2.884c0,6.023.674,19.613.674,19.613a50.888,50.888,0,0,0,8.99.96C670.848,276.814,673.283,269.394,675.928,263.3Z" transform="translate(51.047 11.52)" fill="#00a1cc" opacity="0.65" style="mix-blend-mode: multiply;isolation: isolate"/>
      <path id="Path_5079" data-name="Path 5079" d="M639.583,276.825l1.648,5.892s26.72-5.744,29.422-7.651,18.882-18.587,16.508-23.232-5.452-3.5-7.387-.864-11.169,13.9-12.487,15.214S639.583,276.825,639.583,276.825Z" transform="translate(43.805 11.012)" fill="#0254e4"/>
      <g id="Group_1356" data-name="Group 1356" transform="translate(556.426 243.431)">
        <path id="Path_5080" data-name="Path 5080" d="M541.844,250a52.871,52.871,0,0,0,2.349-5.465c.586-1.9,3.025-8.5,4.019-7.91s-1.22,6.148-1.22,6.148,1.8-6.876,3.082-6.605-1.626,6.774-1.626,6.774,2.337-6.1,3.116-5.588.305,1.863-1.761,6.4c0,0,1.761-3.9,2.608-3.082s-1.389,4.437-2.236,5.318-4.878,4.64-5.792,6.165C544.383,252.155,542.013,251.534,541.844,250Z" transform="translate(-541.844 -236.159)" fill="#f9a57e"/>
        <path id="Path_5081" data-name="Path 5081" d="M545.032,243.526s2.947-2,3.862-1.39.1,1.39-3.015,2.676c0,0-1.016,1.525-1.728,1.694A2.156,2.156,0,0,1,545.032,243.526Z" transform="translate(-541.239 -234.406)" fill="#ffb089"/>
      </g>
      <path id="Path_5082" data-name="Path 5082" d="M549.218,245.412s-10.457,17.586-11,17.462S522.5,258.165,517.3,254.28c-1.476-1.1-1.473,10.927,0,11.664S540.868,270.61,541.85,270s12.2-21.716,12.2-21.716Z" transform="translate(6.912 10.039)" fill="#0254e4"/>
      <path id="Path_5083" data-name="Path 5083" d="M543.413,264.143c-7.543,4.846-25.208-9.135-27.242-9.6-.3,3.293.187,8.193,1.157,8.677,1.473.737,23.573,4.666,24.555,4.052a24.634,24.634,0,0,0,2.379-3.751A8.365,8.365,0,0,1,543.413,264.143Z" transform="translate(6.879 12.767)" fill="#00a1cc" opacity="0.65" style="mix-blend-mode: multiply;isolation: isolate"/>
      <path id="Path_5084" data-name="Path 5084" d="M519.169,248.239c-.668-.139-3.862-6.878-5.23-8.19-.655,4.6-3.438,15.52-3.438,15.52,3.377,3.622,10.11,1.4,10.11,1.4A22.851,22.851,0,0,1,519.169,248.239Z" transform="translate(5.211 8.435)" fill="#e76f59"/>
      <path id="Path_5085" data-name="Path 5085" d="M516.752,233.5s6.552,1.474,7.808,3.385,1.251,6.883,1.945,8.2c.421.8.8,1.438,1.007,1.9.184.409-.281.65-.851.851a.993.993,0,0,0-.612.635c-.388,1.2-1.47,4.271-2.554,4.7-1.351.531-8.026.327-10.033-5.488S512.554,232.252,516.752,233.5Z" transform="translate(5.805 6.444)" fill="#f9a57e"/>
      <path id="Path_5086" data-name="Path 5086" d="M537.474,320.019l-4.4-.727a34.353,34.353,0,0,1-.59,5.14,14.117,14.117,0,0,0,10,.492s-3.225-1.39-4.071-2.376A4.854,4.854,0,0,1,537.474,320.019Z" transform="translate(11.783 32.128)" fill="#f9a57e"/>
      <path id="Path_5087" data-name="Path 5087" d="M532.944,321.735a14.134,14.134,0,0,0,8.537,1.951s6.316,3.381,6.724,4.227c.569,1.185-2.2,1.259-6.514,1.117-3.683-.121-3.414-.4-4.152-1.12s-1.661-1.526-1.661-1.526a7.52,7.52,0,0,0-.718,2.559l-1.647-.238a5.439,5.439,0,0,0-.6-3.1A3.1,3.1,0,0,1,532.944,321.735Z" transform="translate(11.709 32.858)" fill="#292c3d"/>
      <path id="Path_5088" data-name="Path 5088" d="M524.01,319.229l-3.324-.908s-1.951,3.253-2.52,4.106a14.121,14.121,0,0,0,9.638,2.694s-2.838-2.069-3.444-3.219A4.853,4.853,0,0,1,524.01,319.229Z" transform="translate(7.502 31.838)" fill="#f9a57e"/>
      <path id="Path_5089" data-name="Path 5089" d="M518.654,320.891a14.135,14.135,0,0,0,8.32,2.73s5.977,3.949,6.305,4.83c.457,1.231-2.3,1.05-6.59.511-3.657-.46-3.362-.709-4.031-1.5s-1.513-1.673-1.513-1.673a7.547,7.547,0,0,0-.952,2.482l-1.617-.388a5.439,5.439,0,0,0-.313-3.142A3.1,3.1,0,0,1,518.654,320.891Z" transform="translate(7.384 32.606)" fill="#292c3d"/>
      <path id="Path_5090" data-name="Path 5090" d="M512.195,272.266l8.677,6.142s28.149,5.425,31.721,8.1-22.726,50.173-22.726,50.173l-8.186-2.719s19.646-42.052,17.86-43.838-30.733-4.428-32.557-4.975C505.2,284.617,507.746,278.2,512.195,272.266Z" transform="translate(3.987 18.068)" fill="#ff4c6b"/>
      <path id="Path_5091" data-name="Path 5091" d="M512.195,272.266l8.677,6.142s28.149,5.425,31.721,8.1-22.726,50.173-22.726,50.173l-8.186-2.719s19.646-42.052,17.86-43.838-30.733-4.428-32.557-4.975C505.2,284.617,507.746,278.2,512.195,272.266Z" transform="translate(3.987 18.068)" fill="#da395b"/>
      <path id="Path_5092" data-name="Path 5092" d="M509.77,274.413l11.343.955s29.074,7.331,32.646,10.01-5.21,50.182-5.21,50.182l-8.884-2.247s5.009-42.086,2.829-43.361c-1.88-1.1-32.392-1.1-34.3-1.1C505.449,288.851,503.508,280.731,509.77,274.413Z" transform="translate(3.746 18.71)" fill="#ff4c6b"/>
      <path id="Path_5093" data-name="Path 5093" d="M512.788,250.244a82.449,82.449,0,0,0,9,3.414s5.291,10.446,5.648,13.36,2.658,18.834,2.658,18.834-16.324,4.7-23.874.968c0,0,2.285-11.291,1.452-17.47S507.555,254.823,512.788,250.244Z" transform="translate(3.93 11.483)" fill="#0254e4"/>
      <path id="Path_5094" data-name="Path 5094" d="M512.835,266.155c.018,5.228,3.38,7.787,6.839,11.169a22.588,22.588,0,0,1,5.179,7.478c1.854-.544,3.258-.809,3.258-.809s-1.233-8.53-2.034-14.246c-3.47-1.551-5.31-4.869-6.549-8.4a13.316,13.316,0,0,0-2.4-4.885c-3.841.105-4.074,4.6-4.292,8.8C512.834,265.562,512.834,265.864,512.835,266.155Z" transform="translate(5.908 13.343)" fill="#00a1cc" opacity="0.65" style="mix-blend-mode: multiply;isolation: isolate"/>
      <g id="Group_1358" data-name="Group 1358" transform="translate(493.073 263.846)">
        <path id="Path_5095" data-name="Path 5095" d="M493.073,253.448l11.352,45.383,4.7-1.175-9.763-45.781Z" transform="translate(-493.073 -251.875)" fill="#afeaf0"/>
        <g id="Group_1357" data-name="Group 1357" transform="translate(15.11 48.277)">
          <rect id="Rectangle_588" data-name="Rectangle 588" width="1.88" height="49.533" transform="translate(34.812)" fill="#afeaf0"/>
          <rect id="Rectangle_589" data-name="Rectangle 589" width="1.88" height="49.533" fill="#afeaf0"/>
        </g>
        <rect id="Rectangle_590" data-name="Rectangle 590" width="46.781" height="6.481" transform="translate(10.065 43.715)" fill="#292c3d"/>
      </g>
      <path id="Path_5096" data-name="Path 5096" d="M529.132,239.6c2.117-.829,1.168-4.113-.283-5.123a15.932,15.932,0,0,0-9.007-3.036c-3.836.078-7.343,3.046-9.57,5.922-1.616,2.086-1.505,4.3-2.671,6.54-1.061,2.043-3.355,3.066-4.73,4.9a7.078,7.078,0,0,0-.8,6.017,11.319,11.319,0,0,1,.577,4.665c-.325,2.03-1.951,3.524-2.5,5.483a15.258,15.258,0,0,0-.095,5.57,7.57,7.57,0,0,0,3.342,5.673c4.026,2.672,9.474-.566,10.094-5.061.282-2.036-.314-3.819-.512-5.77-.252-2.482.607-3.9,2.692-5.251,1.761-1.138,2.594-1.88,2.459-4.081a18.2,18.2,0,0,1,.019-4.511c.322-1.7,1.039-2.029-.3-3.276-.934-.873-1.721-1.815-.978-3.133.6-1.072,1.576-1.387,2.412-.379.22.264,1.324,2.481,1.606,1.233.079-.349-.387-1.025-.43-1.413a1.55,1.55,0,0,1,.444-1.409c.661-.7,1.635-1.076,2.317-1.781.853-.883.964-2.048,2.2-2.536a3.2,3.2,0,0,1,1.972-.083C527.685,238.846,528.931,239.682,529.132,239.6Z" transform="translate(2.024 5.862)" fill="#292c3d"/>
      <g id="Group_1359" data-name="Group 1359" transform="translate(563.336 265.554)">
        <rect id="Rectangle_591" data-name="Rectangle 591" width="24.329" height="3.478" transform="translate(0 23.034)" fill="#292c3d"/>
        <path id="Path_5097" data-name="Path 5097" d="M573.055,253.642l-7.882,24.445-1.232-.452,7.882-24.445Z" transform="translate(-542.147 -253.19)" fill="#292c3d"/>
      </g>
      <g id="Group_1360" data-name="Group 1360" transform="translate(552.212 292.066)">
        <rect id="Rectangle_592" data-name="Rectangle 592" width="1.619" height="71.523" transform="translate(0 0.001)" fill="#7695a8"/>
        <rect id="Rectangle_593" data-name="Rectangle 593" width="1.619" height="71.523" transform="translate(160.773 0.001)" fill="#7695a8"/>
        <rect id="Rectangle_594" data-name="Rectangle 594" width="162.392" height="1.896" fill="#7695a8"/>
      </g>
      <path id="Path_5098" data-name="Path 5098" d="M545.06,270.981s2.108-.142,2.546-.227,5.5-4.4,6.2-4.079,7.264,3.208,7.243,4.031-1.729.665-5.3-1.322c0,0,4.652,2.086,4,2.941s-4.844-1.682-4.844-1.682,4.213,2.019,3.458,2.8-4.634-1.847-4.634-1.847,3.019,1.952,2.749,2.43-2.012.091-4.083-1.2c0,0-.355-.112-1.191.568s-6.742.838-6.742.838Z" transform="translate(15.363 16.391)" fill="#f9a57e"/>
      <path id="Path_5099" data-name="Path 5099" d="M556.026,273.81l-.058,5.617s-19.684,1.2-25.208-.644-17.173-16.7-18.169-19.189c-1.2-2.993,3.362-10.267,7.873-3.637a138.839,138.839,0,0,0,13.15,15.828C534.074,272.06,556.026,273.81,556.026,273.81Z" transform="translate(5.778 12.383)" fill="#0254e4"/>
    </g>
    <g id="Group_1362" data-name="Group 1362" transform="translate(172.895 1772.512)">
      <path id="Path_5100" data-name="Path 5100" d="M157.01,285.175v3.473h39.372v9.065H157.01v3.473h83.958V285.175Z" transform="translate(8.503 29.05)" fill="#da395b"/>
      <path id="Path_5101" data-name="Path 5101" d="M247.451,296.58v-.007H250v-2.4H161.724v11.066H250v-2.4h-2.547v0c-.84-.082-1.509-1.449-1.509-3.129S246.611,296.66,247.451,296.58Z" transform="translate(12.178 36.065)" fill="#0254e4"/>
      <rect id="Rectangle_595" data-name="Rectangle 595" width="38.054" height="16.011" transform="translate(211.417 314.225)" fill="#ff4c6b"/>
      <rect id="Rectangle_596" data-name="Rectangle 596" width="48.721" height="11.066" transform="translate(173.903 330.236)" fill="#00a1cc" opacity="0.65" style="mix-blend-mode: multiply;isolation: isolate"/>
      <path id="Path_5102" data-name="Path 5102" d="M157.01,287.127v.011c1.214.117,2.18,2.093,2.18,4.522s-.966,4.4-2.18,4.52v.011h42.309v-9.064Z" transform="translate(8.502 30.572)" fill="#f8f2ed"/>
      <path id="Path_5103" data-name="Path 5103" d="M246.3,273.4V269.93H206.928v-9.065H246.3v-3.473H162.342V273.4Z" transform="translate(12.66 7.388)" fill="#ff4c6b"/>
      <rect id="Rectangle_597" data-name="Rectangle 597" width="38.054" height="16.011" transform="translate(175.003 264.78)" fill="#da395b"/>
      <path id="Path_5104" data-name="Path 5104" d="M228.053,268.41V268.4c-1.214-.116-2.18-2.093-2.18-4.52s.966-4.4,2.18-4.522v-.011H185.745v9.066Z" transform="translate(30.907 8.91)" fill="#f8f2ed"/>
      <path id="Path_5105" data-name="Path 5105" d="M268.878,330.381v-2.431H211.3v-6.344h57.575v-2.431H146.105v11.205Z" transform="translate(0 55.56)" fill="#ff4c6b"/>
      <rect id="Rectangle_598" data-name="Rectangle 598" width="55.647" height="11.205" transform="translate(146.105 374.736)" fill="#da395b"/>
      <path id="Path_5106" data-name="Path 5106" d="M242.2,326.887v-.009a3.164,3.164,0,1,1,0-6.329v-.007H180.327v6.345Z" transform="translate(26.682 56.625)" fill="#f8f2ed"/>
      <path id="Path_5107" data-name="Path 5107" d="M149.8,300.39v3.473H192v9.065H149.8V316.4h89.981V300.39Z" transform="translate(2.881 40.913)" fill="#48525b"/>
      <rect id="Rectangle_599" data-name="Rectangle 599" width="51.788" height="16.011" transform="translate(201.878 341.302)" fill="#b6b6b6"/>
      <path id="Path_5108" data-name="Path 5108" d="M149.8,302.341v.011c1.3.117,2.337,2.093,2.337,4.522s-1.036,4.4-2.337,4.52v.012h95.112v-9.066Z" transform="translate(2.881 42.434)" fill="#f8f2ed"/>
      <path id="Path_5109" data-name="Path 5109" d="M199.128,302.341H149.8v.011c1.3.117,2.337,2.093,2.337,4.522s-1.036,4.4-2.337,4.52v.012h49.328Z" transform="translate(2.881 42.434)" fill="#f8f2ed"/>
      <path id="Path_5110" data-name="Path 5110" d="M152.412,276.179v3.473h34.965v9.065H152.412v3.473h74.561V276.179Z" transform="translate(4.917 22.036)" fill="#48525b"/>
      <rect id="Rectangle_600" data-name="Rectangle 600" width="42.913" height="16.011" transform="translate(198.096 298.214)" fill="#b6b6b6"/>
      <path id="Path_5111" data-name="Path 5111" d="M152.412,278.13v.012c1.077.116,1.935,2.093,1.935,4.52s-.858,4.4-1.935,4.522v.011h78.813V278.13Z" transform="translate(4.917 23.557)" fill="#f8f2ed"/>
      <path id="Path_5112" data-name="Path 5112" d="M193.286,278.13H152.412v.012c1.077.116,1.935,2.093,1.935,4.52s-.858,4.4-1.935,4.522v.011h40.874Z" transform="translate(4.917 23.557)" fill="#f8f2ed"/>
      <path id="Path_5113" data-name="Path 5113" d="M254.072,326.809V323.03H206.441v-9.865h47.632v-3.779H158.447v17.423Z" transform="translate(9.623 47.927)" fill="#afeaf0"/>
      <rect id="Rectangle_601" data-name="Rectangle 601" width="52.015" height="17.423" transform="translate(157.018 357.313)" fill="#5ac4e0"/>
      <path id="Path_5114" data-name="Path 5114" d="M256.331,321.375v-.013c-1.306-.128-2.347-2.278-2.347-4.921s1.041-4.793,2.347-4.919v-.012H155.551v9.865Z" transform="translate(7.365 49.583)" fill="#f8f2ed"/>
      <path id="Path_5115" data-name="Path 5115" d="M181.39,321.375h54.795v-.013c-1.306-.128-2.347-2.278-2.347-4.921s1.041-4.793,2.347-4.919v-.012H181.39Z" transform="translate(27.511 49.583)" fill="#f8f2ed"/>
      <path id="Path_5116" data-name="Path 5116" d="M235.737,283.812v-3.779h-37.05v-9.865h37.05v-3.779H161.356v17.423Z" transform="translate(11.891 14.402)" fill="#afeaf0"/>
      <rect id="Rectangle_602" data-name="Rectangle 602" width="40.459" height="17.423" transform="translate(164.649 280.791)" fill="#5ac4e0"/>
      <path id="Path_5117" data-name="Path 5117" d="M237.493,278.379v-.012c-1.016-.128-1.824-2.278-1.824-4.921s.808-4.793,1.824-4.921v-.012H159.1v9.867Z" transform="translate(10.134 16.058)" fill="#f8f2ed"/>
      <path id="Path_5118" data-name="Path 5118" d="M179.2,278.379h42.62v-.012c-1.016-.128-1.824-2.278-1.824-4.921s.808-4.793,1.824-4.921v-.012H179.2Z" transform="translate(25.805 16.058)" fill="#f8f2ed"/>
      <rect id="Rectangle_603" data-name="Rectangle 603" width="27.237" height="0.006" transform="translate(232.392 338.902)" fill="#f8f2ed"/>
      <path id="Path_5119" data-name="Path 5119" d="M223.252,298.655c0-1.68.669-3.047,1.509-3.127v-.007H190.826v6.264h33.935v0C223.921,301.7,223.252,300.335,223.252,298.655Z" transform="translate(34.868 37.116)" fill="#f8f2ed"/>
      <path id="Path_5120" data-name="Path 5120" d="M232.223,251.587v-.012H234.1v-3.657h-64.98V264.78H234.1v-3.657h-1.876v0c-.618-.123-1.109-2.207-1.109-4.766S231.606,251.71,232.223,251.587Z" transform="translate(17.944 0)" fill="#0254e4"/>
      <rect id="Rectangle_604" data-name="Rectangle 604" width="35.865" height="16.864" transform="translate(187.062 247.917)" fill="#00a1cc" opacity="0.65" style="mix-blend-mode: multiply;isolation: isolate"/>
      <path id="Path_5121" data-name="Path 5121" d="M214.412,254.75c0-2.559.491-4.643,1.109-4.766v-.012h-24.98v9.548h24.98v0C214.9,259.394,214.412,257.31,214.412,254.75Z" transform="translate(34.646 1.602)" fill="#f8f2ed"/>
    </g>
    <g id="Group_1370" data-name="Group 1370" transform="translate(-555.144 1571.581)">
      <path id="Path_5128" data-name="Path 5128" d="M1080.117,486.168l-34.754,21.466,1.587-12.543Z" fill="#0254e4"/>
      <path id="Path_5129" data-name="Path 5129" d="M1080.117,486.168l-34.754,21.466,4.366-8.933Z" fill="#292c3d"/>
      <g id="Group_1369" data-name="Group 1369">
        <path id="Path_5130" data-name="Path 5130" d="M1059.78,511.851l-21.636-26.492,46.85-4.941Z" fill="#e0bdff"/>
        <path id="Path_5131" data-name="Path 5131" d="M1083.524,481.228l-36.744,14.706,2.659,3.256Z" fill="#0254e4"/>
      </g>
    </g>
    <g id="Group_1371" data-name="Group 1371" transform="translate(1028.732 980.518) rotate(74)">
      <path id="Path_5128-2" data-name="Path 5128" d="M1080.117,486.168l-34.754,21.466,1.587-12.543Z" fill="#0254e4"/>
      <path id="Path_5129-2" data-name="Path 5129" d="M1080.117,486.168l-34.754,21.466,4.366-8.933Z" fill="#292c3d"/>
      <g id="Group_1369-2" data-name="Group 1369">
        <path id="Path_5130-2" data-name="Path 5130" d="M1059.78,511.851l-21.636-26.492,46.85-4.941Z" fill="#e0bdff"/>
        <path id="Path_5131-2" data-name="Path 5131" d="M1083.524,481.228l-36.744,14.706,2.659,3.256Z" fill="#0254e4"/>
      </g>
    </g>
    <g transform="matrix(1, 0, 0, 1, 145.57, 1978.29)" filter="url(#Rectangle_605)">
      <rect id="Rectangle_605-2" data-name="Rectangle 605" width="289" height="85" rx="15" transform="translate(35.43 208.71)" fill="#fff"/>
    </g>
    <g transform="matrix(1, 0, 0, 1, 145.57, 1978.29)" filter="url(#Rectangle_606)">
      <rect id="Rectangle_606-2" data-name="Rectangle 606" width="289" height="85" rx="15" transform="translate(407.43 208.71)" fill="#fff"/>
    </g>
    <g transform="matrix(1, 0, 0, 1, 145.57, 1978.29)" filter="url(#Rectangle_607)">
      <rect id="Rectangle_607-2" data-name="Rectangle 607" width="289" height="85" rx="15" transform="translate(778.43 208.71)" fill="#fff"/>
    </g>
    <text id="simple_video_courses_to_ease_global_trade" data-name="simple video courses to ease global trade" transform="translate(233 2206)" fill="#525252" font-size="18" font-family="SegoeUI, Segoe UI"><tspan x="0" y="19">simple video courses to </tspan></text>
    <text id="Live_student-teacher_interactive_session" data-name="Live student-teacher interactive session" transform="translate(604 2207)" fill="#525252" font-size="18" font-family="SegoeUI, Segoe UI"><tspan x="0" y="19">Live student-teacher </tspan></text>
    <text id="Get_ready_for_career" data-name="Get ready for career" transform="translate(983 2236)" fill="#525252" font-size="18" font-family="SegoeUI, Segoe UI"><tspan x="0" y="0">Get ready for career</tspan></text>
    <circle id="Ellipse_2282" data-name="Ellipse 2282" cx="6" cy="6" r="6" transform="translate(207 2007)" fill="#656565"/>
    <g id="Ellipse_2283" data-name="Ellipse 2283" transform="translate(198 1998)" fill="none" stroke="#707070" stroke-width="3">
      <circle cx="15" cy="15" r="15" stroke="none"/>
      <circle cx="15" cy="15" r="13.5" fill="none"/>
    </g>
    <g id="Group_1372" data-name="Group 1372" transform="translate(-54.812 2078.58) rotate(-20)">
      <path id="Path_5128-3" data-name="Path 5128" d="M1080.117,486.168l-34.754,21.466,1.587-12.543Z" fill="#0254e4"/>
      <path id="Path_5129-3" data-name="Path 5129" d="M1080.117,486.168l-34.754,21.466,4.366-8.933Z" fill="#292c3d"/>
      <g id="Group_1369-3" data-name="Group 1369">
        <path id="Path_5130-3" data-name="Path 5130" d="M1059.78,511.851l-21.636-26.492,46.85-4.941Z" fill="#e0bdff"/>
        <path id="Path_5131-3" data-name="Path 5131" d="M1083.524,481.228l-36.744,14.706,2.659,3.256Z" fill="#0254e4"/>
      </g>
    </g>
    <g id="Group_1373" data-name="Group 1373" transform="translate(-766.461 1546.624) rotate(9)">
      <path id="Path_5128-4" data-name="Path 5128" d="M1080.117,486.168l-34.754,21.466,1.587-12.543Z" fill="#0254e4"/>
      <path id="Path_5129-4" data-name="Path 5129" d="M1080.117,486.168l-34.754,21.466,4.366-8.933Z" fill="#292c3d"/>
      <g id="Group_1369-4" data-name="Group 1369">
        <path id="Path_5130-4" data-name="Path 5130" d="M1059.78,511.851l-21.636-26.492,46.85-4.941Z" fill="#e0bdff"/>
        <path id="Path_5131-4" data-name="Path 5131" d="M1083.524,481.228l-36.744,14.706,2.659,3.256Z" fill="#0254e4"/>
      </g>
    </g>
  </g>
</svg>
